<?xml version="1.0" standalone="no"?>
<!DOCTYPE svg PUBLIC "-//W3C//DTD SVG 1.1//EN" "http://www.w3.org/Graphics/SVG/1.1/DTD/svg11.dtd" >
<!--
2013-9-30: Created.
-->
<svg>
<metadata>
Created by iconfont
</metadata>
<defs>

<font id="fg" horiz-adv-x="1024" >
  <font-face
    font-family="fg"
    font-weight="500"
    font-stretch="normal"
    units-per-em="1024"
    ascent="896"
    descent="-128"
  />
    <missing-glyph />
    
    <glyph glyph-name="member" unicode="&#59091;" d="M613.568 320c171.904 0 312-132.608 314.432-297.6v-19.392C928-64 787.776-64 613.568-64H410.432C236.928-64 96-64 96 3.008v19.328C98.368 187.52 238.528 320 410.432 320h203.136zM288 608a224 224 0 1 0 448 0 224 224 0 0 0-448 0z"  horiz-adv-x="1024" />

    
    <glyph glyph-name="runrecord" unicode="&#59090;" d="M427.52 102.4a33.28 33.28 0 0 0 0-66.56H161.28a33.28 33.28 0 1 0 0 66.56h266.24z m222.912 384.704a44.288 44.288 0 0 0 43.2-4.736l251.392-185.088A35.392 35.392 0 0 0 960 268.8a35.456 35.456 0 0 0-14.976-28.48l-251.392-185.088a43.52 43.52 0 0 0-43.2-4.736 36.736 36.736 0 0 0-23.232 33.28V453.824c0 14.272 9.088 27.2 23.232 33.28zM370.624 324.224c19.2 0 34.688-14.848 34.688-33.28a33.92 33.92 0 0 0-34.688-33.216h-208A33.92 33.92 0 0 0 128 291.008c0 18.368 15.552 33.28 34.688 33.28h208z m56.96 221.888a33.28 33.28 0 0 0 0-66.56H161.28a33.28 33.28 0 0 0 0 66.56h266.24zM812.928 768c19.968 0 36.096-14.912 36.096-33.28 0-18.368-16.192-33.28-36.096-33.28H164.032C144.064 701.44 128 716.352 128 734.72c0 18.368 16.192 33.28 36.032 33.28h648.96z"  horiz-adv-x="1024" />

    
    <glyph glyph-name="lineage" unicode="&#59089;" d="M681.024 314.24l51.456-5.248a114.752 114.752 0 1 1 6.656 74.496l-50.624 4.48a170.624 170.624 0 0 1-27.584 74.496l74.496 74.56c13.312-8.512 28.352-14.08 43.968-16.448a114.752 114.752 0 1 1-102.848 64.128L602.048 510.08a168.448 168.448 0 0 1-187.072-11.136L285.312 611.52a108.8 108.8 0 0 1 8.192 40.96 114.752 114.752 0 1 1-116.992-113.984c20.48 0 40.64 5.696 58.112 16.384L368.064 440.96a163.2 163.2 0 0 1-20.16-74.56c0-29.312 7.68-58.112 22.4-83.456L277.12 188.224a109.568 109.568 0 0 1-51.392 12.672 114.752 114.752 0 1 1 103.552-65.536l90.24 87.168c28.608-20.48 63.04-31.488 98.304-31.36a163.2 163.2 0 0 1 74.56 17.216l74.496-91.712c-12.16-18.304-18.624-39.808-18.624-61.824a114.752 114.752 0 1 1 112.512 115.52c-12.928-0.32-25.728-2.56-38.016-6.72l-74.496 91.648c14.848 17.152 25.984 37.248 32.768 58.88z m160.256 62.528a40.256 40.256 0 1 0-40.32-40.256 40.96 40.96 0 0 0 40.32 40.32z m-61.888 292.864a40.256 40.256 0 1 0 0-80.448 40.256 40.256 0 0 0 0 80.448z m-602.88-60.352a40.256 40.256 0 1 0 0 79.744 40.256 40.256 0 1 0 0-79.744z m49.216-567.04a40.256 40.256 0 0 0-39.488 40.192 40.256 40.256 0 1 0 79.68 0 40.256 40.256 0 0 0-40.192-36.48v-3.776zM422.4 362.56a96.128 96.128 0 1 0 95.36-96.128 95.36 95.36 0 0 0-95.36 96.128z m378.56-307.008a40.256 40.256 0 1 0-80.512 0 40.256 40.256 0 0 0 80.512 0z"  horiz-adv-x="1024" />

    
    <glyph glyph-name="checkbox_select" unicode="&#58990;" d="M139.264 104.228571H910.628571l7.314286-7.314285v-49.371429l-7.314286-7.314286H139.264l-7.314286 7.314286v49.371429l7.314286 7.314285z m425.398857 329.142858h345.965714l7.314286-7.314286V376.685714l-7.314286-7.314285H564.662857l-7.314286 7.314285v49.371429l7.314286 7.314286zM139.264 713.142857H910.628571l7.314286-7.314286v-49.371428l-7.314286-7.314286H139.264l-7.314286 7.314286V705.828571l7.314286 7.314286zM242.834286 358.546286L420.059429 525.165714l56.246857-53.101714L242.688 252.342857 87.771429 398.628571l56.246857 53.174858 98.742857-93.257143z"  horiz-adv-x="1024" />

    
    <glyph glyph-name="lineage_DB" unicode="&#59085;" d="M512 157.0816c203.3664 0 367.104 57.4464 367.104 107.008l68.096-0.0512-1.2288-212.3776c-16.2304-97.9456-205.312-160.8192-433.9712-160.8192-228.4544 0-417.536 62.7712-435.2 166.2464V264.192h68.096c0-49.664 163.7376-107.008 367.104-107.008zM76.8 450.56V670.208C76.8 776.0896 272.2816 844.8 512 844.8s435.2-68.608 435.2-174.592v-439.552h-6.7584c-10.24-24.3712-31.5904-46.08-61.7472-64.8192v8.9088c-77.4656-48.2816-213.1968-76.5952-366.6944-76.5952-205.824 0-379.5968 50.944-424.1408 132.5056H76.8V450.5088z m175.4112 147.712c66.304-20.6336 158.1056-34.9184 259.7888-34.9184 101.6832 0 193.4848 14.3872 259.7888 34.9184 66.2528 20.48 107.2128 47.3088 107.2128 72.0896 0 49.6128-163.6864 107.008-367.104 107.008-203.3664 0-367.104-57.3952-367.104-107.008 0.1024-24.7808 41.0624-51.6096 107.4176-72.0896zM512 296.96c-153.9584 0-289.6384 28.3136-367.104 76.5952v-101.7856l0.3072-1.8432c8.2944-50.432 169.984-104.1408 366.7968-104.1408s358.4 53.7088 366.7968 104.1408l0.3072 1.8432v101.888c-77.4656-48.384-213.1456-76.6976-367.104-76.6976z m0 198.7584c-153.9584 0-289.6384 28.3648-367.104 76.6464V470.528l0.3072-1.8432c8.2944-50.432 169.984-104.1408 366.7968-104.1408s358.4 53.7088 366.7968 104.1408l0.3072 1.8432V572.3648c-77.4656-48.384-213.1456-76.6464-367.104-76.6464z m0-406.1696c-154.112 0-289.8944 28.3136-367.2576 76.8l-0.3072-103.5264c8.8576-50.7392 170.8544-104.5504 367.5648-104.5504s358.4 53.76 366.336 98.816l0.3584 108.7488c-77.4656-48.0768-212.992-76.288-366.6944-76.288z"  horiz-adv-x="1024" />

    
    <glyph glyph-name="lineage_FTP" unicode="&#59086;" d="M938.6496 341.3504h-85.2992v256H494.336L408.9856 682.6496H170.6496v-597.2992h384V0H128a42.6496 42.6496 0 0 0-42.6496 42.6496V725.3504c0 23.552 19.0976 42.6496 42.6496 42.6496h316.3136l85.3504-85.3504H896c23.552 0 42.6496-19.0976 42.6496-42.6496v-298.6496zM768 170.6496V320L981.3504 128 768-64v149.3504h-128v85.2992H768z"  horiz-adv-x="1024" />

    
    <glyph glyph-name="lineage_DS" unicode="&#59087;" d="M51.2 793.6v-806.4h921.6V793.6H51.2z m345.6-518.4V448h230.4v-172.8h-230.4z m230.4-57.6v-172.8h-230.4V217.6h230.4z m0 460.8v-172.8h-230.4V678.4h230.4z m-288 0v-172.8h-230.4V678.4h230.4z m-230.4-230.4h230.4v-172.8h-230.4V448z m576 0h230.4v-172.8h-230.4V448z m0 57.6V678.4h230.4v-172.8h-230.4zM108.8 217.6h230.4v-172.8h-230.4V217.6z m576-172.8V217.6h230.4v-172.8h-230.4z"  horiz-adv-x="1024" />

    
    <glyph glyph-name="lineage_GD" unicode="&#59088;" d="M158.6176-12.3904a50.688 50.688 0 0 0-36.352 14.4384 47.36 47.36 0 0 0-14.9504 35.1232c0 13.568 4.9664 25.4976 14.9504 35.1232a50.688 50.688 0 0 0 36.352 14.4384h547.84c14.08 0 26.4192-4.8128 36.352-14.4384a47.4112 47.4112 0 0 0 14.9504-35.1232 47.36 47.36 0 0 0-14.8992-35.1232 50.7392 50.7392 0 0 0-36.352-14.4384H158.5664zM158.6176 681.2672a50.688 50.688 0 0 0-36.352 14.4384 47.3088 47.3088 0 0 0-14.9504 35.1232c0 13.568 4.9664 25.5488 14.9504 35.1232a50.688 50.688 0 0 0 36.352 14.4384h547.84c14.08 0 26.4192-4.8128 36.352-14.4384a47.36 47.36 0 0 0 14.9504-35.1232 47.36 47.36 0 0 0-14.8992-35.1232 50.7392 50.7392 0 0 0-36.352-14.4384H158.5664zM158.8224 507.904A51.2 51.2 0 0 0 122.368 522.24a47.2576 47.2576 0 0 0-15.0016 35.1744c0 13.5168 5.0688 25.4976 15.0016 35.072a51.2 51.2 0 0 0 36.5056 14.4384h641.7408c14.08 0 26.5728-4.8128 36.5568-14.4384a47.36 47.36 0 0 0 14.9504-35.072c0-13.6192-5.0176-25.6-14.9504-35.1744-9.984-9.6256-22.528-14.4384-36.5568-14.4384H158.8224zM337.408 334.4384a50.8928 50.8928 0 0 0-36.352 14.4384 47.3088 47.3088 0 0 0-15.0016 35.1232c0 13.568 5.0176 25.5488 14.9504 35.1232a50.8928 50.8928 0 0 0 36.4544 14.4384h532.7872c14.0288 0 26.4704-4.8128 36.4032-14.4384A47.36 47.36 0 0 0 921.6 384a47.3088 47.3088 0 0 0-14.9504-35.1232 50.8416 50.8416 0 0 0-36.4032-14.4384H337.408zM158.8224 161.024a51.2 51.2 0 0 0-36.5056 14.4384 47.36 47.36 0 0 0-15.0016 35.1232c0 13.568 5.0176 25.5488 15.0016 35.1232a51.0976 51.0976 0 0 0 36.5056 14.4384h641.7408a51.2 51.2 0 0 0 36.5568-14.4384 47.3088 47.3088 0 0 0 14.9504-35.1232c0-13.568-5.0176-25.6-14.9504-35.1232-9.984-9.6256-22.528-14.4384-36.5568-14.4384H158.8224zM226.5088 384a59.648 59.648 0 0 1-119.1936 0 59.648 59.648 0 0 1 119.1936 0z"  horiz-adv-x="1024" />

    
    <glyph glyph-name="edit_format" unicode="&#59034;" d="M804.266667-92.416h-652.8c-59.989333 0-108.8 45.568-108.8 101.546667V686.336c0 55.893333 48.810667 101.546667 108.8 101.546667h507.733333c20.138667 0 36.266667-15.189333 36.266667-33.877334 0-18.773333-16.213333-33.877333-36.266667-33.877333h-507.733333c-19.968 0-36.266667-15.189333-36.266667-33.792v-677.12c0-18.773333 16.298667-33.877333 36.266667-33.877333h652.8c20.053333 0 36.266667 15.189333 36.266666 33.877333V550.826667c0 18.773333 16.213333 33.877333 36.266667 33.877333s36.266667-15.189333 36.266667-33.877333v-541.610667c0-56.064-48.810667-101.546667-108.8-101.546667v-0.085333zM591.189333 449.194667a37.546667 37.546667 0 0 0-25.6 9.984 32.256 32.256 0 0 0 0 47.872L925.866667 843.434667a38.058667 38.058667 0 0 0 51.285333 0 32.256 32.256 0 0 0 0-47.957334L616.96 459.178667a37.376 37.376 0 0 0-25.685333-9.984z m-149.589333 0h-217.6c-20.053333 0-36.266667 15.274667-36.266667 33.962666 0 18.688 16.213333 33.792 36.266667 33.792h217.6c20.053333 0 36.266667-15.104 36.266667-33.792 0-18.773333-16.213333-33.962667-36.266667-33.962666z m217.6-203.093334h-435.2c-20.053333 0-36.266667 15.104-36.266667 33.877334 0 18.773333 16.213333 33.877333 36.266667 33.877333h435.2c20.138667 0 36.266667-15.189333 36.266667-33.877333 0-18.773333-16.213333-33.877333-36.266667-33.877334z"  horiz-adv-x="1024" />

    
    <glyph glyph-name="record" unicode="&#59084;" d="M512-108.307692C240.088615-108.307692 19.692308 112.088615 19.692308 384S240.088615 876.307692 512 876.307692 1004.307692 655.911385 1004.307692 384 783.911385-108.307692 512-108.307692z m0 39.384615c250.131692 0 452.923077 202.791385 452.923077 452.923077S762.131692 836.923077 512 836.923077 59.076923 634.131692 59.076923 384 261.868308-68.923077 512-68.923077zM477.065846 209.329231a19.062154 19.062154 0 0 0 0-38.124308H324.608a19.062154 19.062154 0 0 0 0 38.124308z m127.645539 220.278154a25.363692 25.363692 0 0 0 24.733538-2.717539l143.950769-105.984c5.435077-3.938462 8.585846-10.003692 8.585846-16.305231 0-6.301538-3.150769-12.327385-8.585846-16.30523l-143.950769-105.984a24.891077 24.891077 0 0 0-24.733538-2.717539 21.031385 21.031385 0 0 0-13.312 19.022769v211.968c0 8.152615 5.198769 15.556923 13.312 19.02277z m-160.216616-93.26277c10.988308 0 19.849846-8.507077 19.849846-19.062153a19.456 19.456 0 0 0-19.849846-19.02277H325.395692a19.456 19.456 0 0 0-19.849846 19.02277c0 10.555077 8.900923 19.062154 19.849846 19.062153z m32.571077 127.05477a19.062154 19.062154 0 0 0 0-38.124308H324.608a19.062154 19.062154 0 0 0 0 38.124308z m220.750769 127.054769c11.421538 0 20.637538-8.546462 20.637539-19.062154s-9.255385-19.062154-20.637539-19.062154H326.183385c-11.421538 0-20.637538 8.546462-20.637539 19.062154s9.255385 19.062154 20.637539 19.062154z"  horiz-adv-x="1024" />

    
    <glyph glyph-name="help1" unicode="&#58921;" d="M512-128A512 512 0 1 0 512 896a512 512 0 1 0 0-1024z m0 93.013a418.987 418.987 0 1 1 0 837.974 418.987 418.987 0 1 1 0-837.974zM467.115 240.213h88.746v-12.544h-88.746v12.544z m0 31.232c0 15.446 3.669 30.379 10.24 44.715 7.936 17.237 19.626 33.024 36.352 51.2 5.973 6.4 12.288 12.8 20.821 21.333l20.907 20.736c42.666 42.838 59.904 70.23 59.904 98.646 0 64.17-46.08 99.84-110.934 99.84-49.493 0-90.026-37.547-96.426-93.44L320 526.336C330.325 627.968 410.027 704.683 504.49 704 613.12 704 704 633.515 704 508.075c0-63.744-28.672-109.227-88.235-169.131-53.76-53.845-53.504-53.675-59.05-65.707-0.768-1.621-0.939-2.218-0.939-1.877v-43.69h-88.747v43.69l0.086 0.085z m0.341-105.216h88.747V64h-88.747V166.23z"  horiz-adv-x="1024" />

    
    <glyph glyph-name="helpcenter" unicode="&#59083;" d="M921.941333 810.666667H653.056c-62.805333 0-118.613333-30.549333-153.6-77.482667A191.317333 191.317333 0 0 1 345.856 810.666667H76.8C34.474667 810.666667 0 775.850667 0 733.184v-716.544c0-42.666667 34.474667-77.482667 76.8-77.482667h282.453333c37.717333-37.12 87.893333-58.112 140.202667-58.112s102.4 20.906667 140.117333 58.112h282.453334c42.325333 0 76.8 34.816 76.8 77.482667V733.184a77.397333 77.397333 0 0 1-76.8 77.482667z m0-794.026667H623.018667a37.802667 37.802667 0 0 1-29.184-13.653333c-24.064-28.16-58.368-44.373333-94.293334-44.373334-35.84 0-70.229333 16.213333-94.293333 44.373334a38.229333 38.229333 0 0 1-29.184 13.653333H76.885333V733.184h268.885334c63.573333 0 115.2-52.053333 115.2-116.138667v-329.216c0-21.418667 17.152-38.741333 38.4-38.741333 21.333333 0 38.485333 17.322667 38.485333 38.741333V617.045333c0 64 51.712 116.053333 115.2 116.053334h268.885333v-716.458667z"  horiz-adv-x="1024" />

    
    <glyph glyph-name="version" unicode="&#59082;" d="M512-128c-141.482667 0-263.509333 50.346667-362.666667 149.504C48.896 122.197333 0 240.810667 0 384.512 0 528.128 48.810667 646.826667 149.333333 747.434667 226.816 828.928 329.045333 879.445333 444.586667 892.757333c50.090667 4.266667 72.96 4.266667 129.365333 0.170667h0.170667c7.68 0 73.728-9.642667 128.768-29.866667a39.424 39.424 0 0 0-27.136-73.984A542.634667 542.634667 0 0 1 568.576 814.250667C515.584 818.176 497.152 818.090667 452.266667 814.336a399.104 399.104 0 0 1-246.442667-121.856C120.064 606.634667 78.762667 506.197333 78.762667 384.426667c0-121.6 41.301333-222.037333 126.293333-307.2 84.992-84.992 185.429333-126.378667 306.944-126.378667 117.76 0 218.453333 41.557333 307.541333 126.976 84.224 88.064 125.696 188.757333 125.696 306.688a471.04 471.04 0 0 1-24.746666 146.773333 326.656 326.656 0 0 0-8.533334 19.882667c-2.56 6.656-5.12 13.056-7.424 16.384a44.032 44.032 0 0 0-2.474666 4.352s-19.968 32.682667-71.594667 33.365333h-0.597333c-46.336 0-60.672-22.016-66.133334-30.293333l-1.024-1.450667-179.712-379.392c-18.176-39.338667-42.325333-59.989333-71.68-60.928-29.354667 0-55.722667 19.029333-77.397333 59.136L255.658667 576.853333a39.424 39.424 0 0 0 71.509333 33.28L504.32 227.584c1.365333-2.56 2.730667-4.864 3.925333-6.826667 1.194667 2.218667 2.304 4.437333 3.328 6.741334l181.418667 382.805333a41.386667 41.386667 0 0 0 4.437333 7.253333c36.522667 55.466667 94.634667 66.133333 133.717334 66.56 79.616-1.109333 125.610667-48.042667 140.117333-74.752 6.229333-9.728 10.069333-19.626667 13.909333-29.269333 2.048-5.290667 4.266667-10.837333 6.997334-16.384 0.853333-1.706667 1.536-3.413333 2.133333-5.12 19.626667-58.965333 29.610667-117.589333 29.610667-174.165333 0-137.386667-50.090667-259.242667-148.821334-362.325334C770.986667-77.909333 649.130667-128 512-128z"  horiz-adv-x="1024" />

    
    <glyph glyph-name="validation_report" unicode="&#59268;" d="M882.102857 145.334857l141.604572-116.224-46.445715-56.539428-143.36 117.686857c18.505143 16.018286 34.742857 34.523429 48.201143 55.076571z m-424.228571 348.16l16.237714-13.312c-17.408-17.115429-32.475429-36.571429-44.690286-57.856l-17.92 14.628572 46.445715 56.539428zM659.968 592.676571a302.006857 302.006857 0 1 0 0-604.013714 302.006857 302.006857 0 0 0 0 604.013714z m0-73.142857a228.864 228.864 0 1 1 0-457.728 228.864 228.864 0 0 1 0 457.728zM557.348571 300.909714l-51.785142-51.712L627.565714 127.268571l181.76 218.112-56.173714 46.811429-130.486857-156.525714zM330.020571 104.594286v-73.142857H7.314286v73.142857h322.706285z m-64.585142 322.56v-73.142857H7.314286v73.142857h258.194285zM717.238857 749.714286v-73.142857H7.314286V749.714286h709.924571z"  horiz-adv-x="1024" />

    
    <glyph glyph-name="validation_ai" unicode="&#59267;" d="M810.422857 160.182857l195.803429-160.621714-46.372572-56.539429-197.485714 162.084572a397.165714 397.165714 0 0 1 48.128 55.149714zM192 668.013714l9.069714-7.460571a396.653714 396.653714 0 0 1-44.617143-57.782857l-10.898285 8.777143 46.445714 56.466285zM490.057143 822.857143a431.542857 431.542857 0 1 0 0-863.085714A431.542857 431.542857 0 0 0 490.057143 822.857143z m0-73.142857a358.4 358.4 0 1 1 0-716.8 358.4 358.4 0 0 1 0 716.8zM324.754286 393.947429l-51.785143-51.785143 167.716571-167.716572 258.048 309.613715-56.246857 46.811428-206.701714-248.027428z"  horiz-adv-x="1024" />

    
    <glyph glyph-name="set_up" unicode="&#59266;" d="M983.552 247.488L900.48 313.6a396.352 396.352 0 0 1 0 145.088L983.552 524.8c26.944 21.312 35.968 59.712 17.984 89.6l-35.904 61.888c-13.44 21.312-38.208 34.112-65.152 34.112-8.96 0-17.92-2.112-24.704-4.288l-101.056-36.224A394.048 394.048 0 0 1 644.48 742.4L626.56 842.688C619.712 876.8 588.288 896 552.384 896H480.576C444.608 896 413.184 876.8 406.4 842.688l-17.92-98.176C339.008 729.6 296.32 704 256 672l-98.816 36.288c-8.96 2.112-15.68 4.224-24.704 4.224-26.88 0-51.648-12.8-65.088-34.112l-35.968-59.712a67.072 67.072 0 0 1 17.92-89.6l83.2-66.176a396.352 396.352 0 0 1 0-145.024l-83.2-66.176c-26.88-21.312-35.84-59.712-17.92-89.6l35.968-64c13.44-21.312 38.144-34.112 65.088-34.112 8.96 0 17.92 2.112 24.704 4.288l101.12 36.224c40.32-34.112 85.248-57.6 130.176-72.512l17.92-102.4c6.784-34.112 35.968-57.6 74.176-57.6h71.872c35.904 0 67.328 25.6 74.048 59.712l17.984 102.4a378.752 378.752 0 0 1 136.96 78.976l94.336-36.288c8.96-2.112 17.92-4.288 26.944-4.288 26.944 0 51.648 12.8 65.152 34.176l33.664 55.424c17.92 25.6 8.96 64-17.92 85.376zM518.72 147.2C384 147.2 273.984 251.712 273.984 381.888 273.92 512 381.76 616.512 518.72 616.512c136.96 0 244.8-104.512 244.8-234.624 0-130.176-110.08-234.688-244.8-234.688zM583.872 554.688H480.576c-15.744 0-29.184-8.576-33.728-21.376L384 379.712c-4.48-10.624 4.48-23.424 17.92-23.424h105.6l-38.208-128c-4.48-12.8 11.264-19.2 20.224-10.688l159.424 177.088c11.264 10.624 2.24 27.712-13.44 27.712H556.928l69.568 104.512c6.784 10.688-2.24 25.6-15.68 25.6h-26.944v2.176z"  horiz-adv-x="1024" />

    
    <glyph glyph-name="operation" unicode="&#59081;" d="M692.883017 383.561143l67.364572 67.437714a224.256 224.256 0 0 1 256.731428 276.772572 33.133714 33.133714 0 0 1-55.369143 15.140571l-71.168-71.168a64.073143 64.073143 0 1 0-90.697143 90.697143l71.168 71.168a33.28 33.28 0 0 1 8.484572 32.036571 32.548571 32.548571 0 0 1-23.552 23.186286A224.402286 224.402286 0 0 1 582.583589 727.771429c-8.045714-31.232-9.216-63.926857-3.657143-95.597715l-135.168-135.314285-136.045715 136.045714a44.178286 44.178286 0 0 1-1.609142 7.021714l-0.512 1.389714-51.638858 133.632a32.768 32.768 0 0 1-7.168 11.117715L147.456731 885.394286a32.109714 32.109714 0 0 1-45.348571 0l-90.697143-90.697143a32.109714 32.109714 0 0 1 0-45.348572l99.328-99.328a31.817143 31.817143 0 0 1 10.678857-7.094857l132.242286-53.101714c0.585143-0.146286 1.170286-0.438857 1.828571-0.731429a44.617143 44.617143 0 0 1 6.948572-1.609142l136.045714-136.045715-360.96-360.813714A127.268571 127.268571 0 0 1 0.000731 0c0-34.230857 13.312-66.340571 37.522286-90.550857 25.014857-25.014857 57.782857-37.449143 90.624-37.449143 32.841143 0 65.682286 12.507429 90.550857 37.449143l293.010286 293.010286 291.84-291.84c25.014857-25.014857 57.782857-37.449143 90.550857-37.449143 32.914286 0 65.682286 12.580571 90.624 37.449143a128.292571 128.292571 0 0 1 0 181.174857l-291.84 291.766857zM151.406446 699.977143l-72.045715 72.045714 45.348572 45.348572 71.899428-71.826286 29.110858-75.410286-74.313143 29.842286z m22.016-745.325714a64.073143 64.073143 0 1 0-90.550857 90.697142L649.801874 612.205714l-4.827428 17.92a159.817143 159.817143 0 0 0 41.398857 154.624 159.597714 159.597714 0 0 0 90.843428 45.494857l-22.674285-22.674285a127.268571 127.268571 0 0 1-37.522286-90.550857c0-34.230857 13.312-66.340571 37.522286-90.624 25.088-25.014857 57.782857-37.449143 90.624-37.449143 32.841143 0 65.682286 12.580571 90.624 37.449143l22.601143 22.674285a159.597714 159.597714 0 0 0-45.348572-90.624 159.963429 159.963429 0 0 0-154.770286-41.545143l-17.846857 4.827429L173.349303-45.348571z m766.025143 1.243428a63.853714 63.853714 0 0 0-45.348572-18.724571 63.853714 63.853714 0 0 0-45.348571 18.724571l-291.693715 291.84 90.550858 90.550857 291.84-291.84c24.868571-24.868571 24.868571-65.536 0-90.550857z"  horiz-adv-x="1024" />

    
    <glyph glyph-name="hide1" unicode="&#59079;" d="M122.148571 686.592l90.550858-90.550857C86.674286 509.366857 0 403.017143 0 403.017143s228.425143-291.474286 512-291.474286c55.149714 0 106.349714 11.849143 157.549714 27.574857l78.774857-78.774857 59.026286 59.099429L185.124571 749.714286l-63.049142-63.049143z m200.777143-200.850286l74.825143-74.825143v-3.949714c0-63.049143 51.2-110.299429 110.299429-110.299428H512l74.825143-74.825143c-23.625143-11.776-51.2-19.748571-78.774857-19.748572a203.337143 203.337143 0 0 0-204.8 204.8c0 27.648 7.899429 55.222857 19.748571 78.848zM512 694.491429c-59.099429 0-114.249143-11.849143-165.449143-31.524572l70.948572-70.948571c27.574857 11.849143 55.149714 19.748571 90.550857 19.748571a203.337143 203.337143 0 0 0 204.8-204.8c0-31.451429-7.899429-63.049143-19.748572-90.624l110.372572-110.226286C937.325714 288.768 1024 403.017143 1024 403.017143s-228.425143 291.474286-512 291.474286z m-3.949714-177.225143h-15.725715l126.025143-126.025143v15.725714c3.949714 59.099429-47.250286 110.299429-110.299428 110.299429z"  horiz-adv-x="1024" />

    
    <glyph glyph-name="show1" unicode="&#59080;" d="M500.809143 676.571429c122.88-1.024 229.376-26.624 327.68-82.944 51.2-29.696 98.304-65.536 135.168-112.64 12.288-15.36 22.528-32.768 29.696-50.176 10.24-25.6 9.216-50.176-3.072-74.752a258.194286 258.194286 0 0 0-59.392-77.824c-62.464-60.416-135.168-100.352-216.064-128-45.056-15.36-92.16-25.6-139.264-29.696a642.194286 642.194286 0 0 0-140.288 1.024c-118.784 15.36-225.28 58.368-318.464 134.144-30.72 25.6-58.368 54.272-77.824 89.088-6.144 10.24-10.24 22.528-14.336 33.792-6.144 20.48-1.024 39.936 8.192 58.368 14.336 30.72 35.84 56.32 60.416 78.848 56.32 53.248 121.856 91.136 194.56 118.784a605.988571 605.988571 0 0 0 159.744 37.888c21.504 2.048 43.008 3.072 53.248 4.096z m-12.288-52.224c-51.2-5.12-97.28-24.576-136.192-59.392-40.96-36.864-66.56-82.944-73.728-137.216-9.216-66.56 8.192-125.952 52.224-176.128 47.104-56.32 108.544-83.968 188.416-84.992 9.216 1.024 24.576 2.048 39.936 5.12 67.584 14.336 120.832 50.176 156.672 108.544 32.768 54.272 40.96 113.664 24.576 175.104-16.384 60.416-53.248 105.472-106.496 137.216a233.033143 233.033143 0 0 1-145.408 31.744zM645.12 422.619429c1.024-9.216 2.048-17.408 2.048-22.528 0-63.488-37.888-116.736-94.208-136.192a135.314286 135.314286 0 0 0-139.264 35.84c-44.032 49.152-50.176 116.736-15.36 172.032 22.528 34.816 53.248 55.296 94.208 61.44A135.168 135.168 0 0 0 645.12 422.619429zM564.297143 507.611429a63.780571 63.780571 0 0 1-63.488-63.488c0-34.816 28.672-63.488 63.488-63.488 34.816-1.024 63.488 28.672 63.488 63.488a63.780571 63.780571 0 0 1-63.488 63.488z"  horiz-adv-x="1024" />

    
    <glyph glyph-name="comment_add" unicode="&#59078;" d="M841.142857 822.857143a85.357714 85.357714 0 0 0 85.357714-85.357714v-572.342858l-195.657142-195.657142H158.500571A85.357714 85.357714 0 0 0 73.142857 54.857143V737.499429A85.357714 85.357714 0 0 0 158.500571 822.857143H841.142857z m0-85.357714H158.500571V54.857143h469.284572V182.857143c0 47.104 38.253714 85.357714 85.357714 85.357714h128V737.499429z m-17.700571-554.642286H713.142857v-110.299429l110.299429 110.299429zM497.005714 625.737143a36.571429 36.571429 0 0 0 36.571429-36.571429v-146.285714h146.285714a36.571429 36.571429 0 1 0 0-73.142857h-146.285714v-146.285714a36.571429 36.571429 0 1 0-73.142857 0v146.285714h-146.285715a36.571429 36.571429 0 1 0 0 73.142857h146.285715v146.285714a36.571429 36.571429 0 0 0 36.571428 36.571429z"  horiz-adv-x="1024" />

    
    <glyph glyph-name="comment" unicode="&#59077;" d="M870.4 832A89.6 89.6 0 0 0 960 742.4v-600.96L754.56-64H153.6A89.6 89.6 0 0 0 64 25.6V742.4A89.6 89.6 0 0 0 153.6 832h716.8z m0-89.6H153.6v-716.8h492.8v134.4a89.6 89.6 0 0 0 89.6 89.6h134.4V742.4z m-18.56-582.4H736v-115.84l115.84 115.84zM512 339.2a44.8 44.8 0 0 0 0-89.6H306.304a44.8 44.8 0 0 0 0 89.6z m224 256.256a44.8 44.8 0 0 0 0-89.6H306.304a44.8 44.8 0 0 0 0 89.6z"  horiz-adv-x="1024" />

    
    <glyph glyph-name="timing_b" unicode="&#59076;" d="M526.144 732.544A397.44 397.44 0 0 0 923.52 334.72a397.696 397.696 0 0 0-397.376-397.824 397.76 397.76 0 1 0 0 795.648z m0.896-66.304a331.264 331.264 0 0 1-331.072-331.52 331.136 331.136 0 0 1 662.144 0 331.52 331.52 0 0 1-331.072 331.52z m12.096-124.544c18.368 0 33.152-14.784 33.152-33.152v-163.072h88.704a33.088 33.088 0 1 0 0-66.304H539.136a33.088 33.088 0 0 0-33.152 33.152V508.544c0 18.368 14.784 33.152 33.152 33.152zM660.992 832c17.92 0 32.704-14.784 32.704-33.152a33.088 33.088 0 0 0-33.152-33.152H384.128a33.088 33.088 0 1 0 0 66.304h276.864z"  horiz-adv-x="1024" />

    
    <glyph glyph-name="move" unicode="&#59075;" d="M419.904 768c22.272 0 44.352-7.36 62.208-20.736L583.488 671.36c5.888-4.48 13.248-6.912 20.672-6.912h252.16c57.152 0 103.68-46.528 103.68-103.68v-483.584c0-57.088-46.528-103.68-103.68-103.68H167.68c-57.152 0-103.68 46.592-103.68 103.68V664.32C64 721.472 110.528 768 167.68 768z m0.128-69.12H167.616a34.624 34.624 0 0 1-34.56-34.56v-587.2c0-19.008 15.552-34.56 34.56-34.56h688.768c19.008 0 34.56 15.552 34.56 34.56V560.64a34.624 34.624 0 0 1-34.56 34.56H604.288c-22.208 0-44.352 7.36-62.144 20.736L440.768 692.032a34.88 34.88 0 0 1-20.736 6.848zM532.928 467.2a34.56 34.56 0 0 0 48.896 0l100.48-100.48 24.448-24.512a34.56 34.56 0 0 0 0-48.896l-24.384-24.32-100.48-100.544a34.56 34.56 0 0 0-48.96 48.896l65.92 65.92H329.6a34.56 34.56 0 1 0 0 69.12h269.376l-65.92 65.92a34.56 34.56 0 0 0 0 48.96z"  horiz-adv-x="1024" />

    
    <glyph glyph-name="access" unicode="&#59073;" d="M754.761143-54.857143H414.208c-38.912 0-75.337143 20.845714-95.012571 54.418286l-156.964572 267.702857a115.053714 115.053714 0 0 0 23.917714 145.554286l3.510858 3.291428c40.96 33.645714 104.009143 32.475429 143.579428-1.243428V712.118857a110.811429 110.811429 0 0 0 189.293714 78.043429c20.992-21.211429 32.402286-49.298286 32.109715-79.140572l-1.755429-180.224 229.156572-15.872c49.005714-4.827429 85.357714-45.129143 85.357714-93.622857l-2.340572-366.08A110.884571 110.884571 0 0 0 754.834286-54.857143zM231.277714 369.078857l-2.852571-2.633143a52.662857 52.662857 0 0 1-12.068572-67.510857l156.964572-267.702857c8.557714-14.628571 23.844571-23.405714 40.96-23.405714h340.48c26.112 0 47.542857 21.430857 47.616 47.762285l2.340571 365.860572a31.085714 31.085714 0 0 1-27.940571 31.012571l-228.352 15.798857a62.683429 62.683429 0 0 0-58.221714 63.122286l1.755428 180.297143a47.616 47.616 0 0 1-47.689143 48.420571 48.128 48.128 0 0 1-48.274285-47.981714v-490.788571l-95.817143 137.728a49.883429 49.883429 0 0 1-68.900572 10.020571z"  horiz-adv-x="1024" />

    
    <glyph glyph-name="save" unicode="&#59072;" d="M263.082667 35.584v298.666667h497.834666v-298.666667h99.498667V591.701333l-140.8 140.8H163.669333v-696.917333h99.498667zM113.749333 832h647.168l199.082667-199.082667v-647.168a49.749333 49.749333 0 0 0-49.749333-49.749333H113.749333a49.749333 49.749333 0 0 0-49.749333 49.749333V782.250667c0 27.477333 22.272 49.749333 49.749333 49.749333z m248.917334-597.333333v-199.082667h298.666666V234.666667h-298.666666z"  horiz-adv-x="1024" />

    
    <glyph glyph-name="datetime" unicode="&#59164;" d="M769.024 195.80342900000005H715.337143V291.76685699999996a23.259429 23.259429 0 0 1-23.259429 23.259429h-7.899428a23.259429 23.259429 0 0 1-23.186286-23.259429v-116.150857a33.060571 33.060571 0 0 1-0.219429-3.072V164.57142899999997c0-12.726857 10.386286-23.186286 23.259429-23.186286h85.065143a23.259429 23.259429 0 0 1 23.259428 23.186286V172.61714300000006a23.405714 23.405714 0 0 1-23.259428 23.259428zM696.173714 469.869714a270.116571 270.116571 0 1 1 0-540.16 270.116571 270.116571 0 0 1 0 540.16z m143.286857-413.257143a201.069714 201.069714 0 0 0-143.36-59.318857c-54.125714 0-104.96 21.065143-143.213714 59.245715a201.069714 201.069714 0 0 0-59.245714 143.36c0 53.979429 21.065143 104.96 59.245714 143.213714a201.069714 201.069714 0 0 0 143.286857 59.245714c54.052571 0 104.96-21.065143 143.286857-59.245714 38.253714-38.180571 59.245714-89.234286 59.245715-143.286857a201.874286 201.874286 0 0 0-59.245715-143.286857zM395.264 102.54628600000001l-267.849143 1.462857V514.7794289999999h657.334857l0.585143-20.918858c0-14.921143 13.092571-29.403429 28.013714-29.403428 14.921143 0 25.6 16.310857 25.6 31.232l0.073143 222.281143a54.418286 54.418286 0 0 1-54.272 54.272H652.726857v23.478857A27.209143 27.209143 0 0 1 625.664 822.857143a27.209143 27.209143 0 0 1-27.136-27.062857v-23.552h-283.062857v23.478857A27.209143 27.209143 0 0 1 288.402286 822.857143a27.209143 27.209143 0 0 1-27.209143-27.062857v-23.552h-133.851429A54.418286 54.418286 0 0 1 73.142857 717.970286v-613.961143c0-29.842286 24.429714-54.272 54.272-54.272l270.921143 2.194286c14.921143 0 33.938286 11.849143 33.938286 26.770285s-22.089143 23.844571-37.010286 23.844572zM261.12 717.970286v-20.626286a27.794286 27.794286 0 0 1 27.136-28.233143 27.794286 27.794286 0 0 1 27.136 28.233143v20.626286h283.062857v-20.626286a27.794286 27.794286 0 0 1 27.062857-28.233143 27.794286 27.794286 0 0 1 27.136 28.233143v20.626286h132.022857v-154.624H127.414857V717.970286h133.851429zM340.553143 267.702857H231.424c-7.168 0-12.946286-2.925714-12.946286-6.436571v-54.564572c0-3.584 5.851429-6.436571 12.946286-6.436571h109.129143c7.094857 0 12.946286 2.925714 12.946286 6.436571v54.564572c0 3.584-5.851429 6.509714-12.946286 6.509714zM239.250286 433.590857c-11.410286 0-20.772571-2.925714-20.772572-6.436571v-54.564572c0-3.510857 9.362286-6.436571 20.772572-6.436571h175.689143c11.483429 0 20.845714 2.925714 20.845714 6.436571V427.154286c0 3.510857-9.362286 6.436571-20.845714 6.436571H239.250286v-0.073143z"  horiz-adv-x="1024" />

    
    <glyph glyph-name="attribute" unicode="&#59157;" d="M395.995429 284.891429L288.036571 558.299429 179.492571 284.891429h216.502858z m95.085714-242.614858L422.180571 217.965714H153.453714l-69.851428-175.689143H0L251.611429 676.571429h89.088l247.734857-634.294858h-97.28z m367.030857 59.172572c-50.541714-46.592-99.254857-69.851429-146.139429-69.851429-38.546286 0-70.509714 12.068571-95.963428 36.205715-25.453714 24.137143-38.180571 54.637714-38.180572 91.428571 0 50.907429 21.357714 89.965714 64.073143 117.248 42.715429 27.282286 103.936 40.96 183.661715 40.96h20.114285v56.100571c0 54.052571-27.648 81.042286-83.090285 81.042286-44.617143 0-92.745143-13.750857-144.457143-41.179428v69.851428c56.905143 23.186286 110.153143 34.742857 159.890285 34.742857 51.931429 0 90.331429-11.702857 115.053715-35.108571 24.722286-23.405714 37.083429-59.904 37.083428-109.348572v-210.797714c0-48.274286 14.848-72.411429 44.617143-72.411428 3.657143 0 9.069714 0.512 16.237714 1.682285l5.997715-46.738285c-19.163429-9.142857-40.228571-13.677714-63.414857-13.677715-39.497143 0-64.585143 23.259429-75.483429 69.851429z m-11.995429 45.860571V267.702857l-28.306285 0.877714c-46.226286 0-83.675429-8.777143-112.274286-26.331428-28.525714-17.554286-42.861714-40.667429-42.861714-69.266286 0-20.260571 7.168-37.376 21.430857-51.419428a71.899429 71.899429 0 0 1 52.297143-20.992c35.108571 0 71.68 15.579429 109.714285 46.738285z"  horiz-adv-x="1024" />

    
    <glyph glyph-name="metric" unicode="&#59165;" d="M352.768 40.96V485.668571c0 32.694857 25.234286 59.245714 56.32 59.245715 31.158857 0 56.32-26.550857 56.32-59.245715v-444.708571c0-32.694857-25.161143-59.245714-56.32-59.245714-31.085714 0-56.32 26.550857-56.32 59.245714z m222.646857 7.826286V719.213714c0 37.083429 25.161143 67.072 56.32 67.072 31.085714 0 56.32-29.988571 56.32-67.072v-670.427428c0-37.083429-25.234286-67.072-56.32-67.072-31.158857 0-56.32 29.988571-56.32 67.072z m222.573714-10.752V375.954286a56.32 56.32 0 0 0 112.64 0v-337.92a56.32 56.32 0 1 0-112.64 0z m-603.428571-48.274286a48.274286 48.274286 0 0 0-48.274286 48.274286V182.857143a48.274286 48.274286 0 1 0 96.548572 0v-144.822857a48.274286 48.274286 0 0 0-48.274286-48.274286z"  horiz-adv-x="1024" />

    
    <glyph glyph-name="rollback" unicode="&#59069;" d="M382.976 451.968a24 24 0 0 0 0-33.92l-16.96-17.024a24 24 0 0 0-33.92 0L219.648 513.344a0.384 0.384 0 0 1-0.448 0h-0.064a0.384 0.384 0 0 0-0.512 0l-50.688 50.624 0.576 0.576-0.576 0.576 50.624 50.56a0.384 0.384 0 0 0 0.512 0.064 0.384 0.384 0 0 1 0.576-0.064l112.32 112.32a24 24 0 0 0 33.92 0l17.024-16.96a24 24 0 0 0 0.256-33.6l-0.256-0.32-65.152-65.088h475.2c32.768 0 59.84-24.768 63.552-56.576l0.448-7.488V96a64 64 0 0 0-64-64H174.976a8 8 0 0 0-8 8v60.032c0 4.352 3.648 7.936 8 7.936h606.08V536H298.88l84.096-84.032z"  horiz-adv-x="1024" />

    
    <glyph glyph-name="autolayout" unicode="&#59070;" d="M760.704 263.936v-0.128h134.336a17.92 17.92 0 0 0 17.92-17.536v-27.264a17.92 17.92 0 0 0-17.92-17.92h-91.52l119.168-119.168a17.92 17.92 0 0 0 0.256-25.024l-19.328-19.328a17.92 17.92 0 0 0-25.344 0l-117.568 117.568v-88.32a17.92 17.92 0 0 0-17.536-17.92h-27.264a17.92 17.92 0 0 0-17.92 17.92v134.272h-0.064l-0.064 0.064v62.72h0.128v0.064h62.72z m62.4 286.08a26.88 26.88 0 0 0 26.88-26.88v-189.12h-72v144H417.984v-360h215.936v-71.936l-261.056-0.064a26.88 26.88 0 0 0-26.88 26.88V523.136a26.88 26.88 0 0 0 26.88 26.88h450.24zM200 336v-72H128V336h72z m143.36 1.728v-72H271.488V337.728h72zM200.064 480v-72H128V480h72z m0 144v-72H128V624h72z m430.272 0v-72H558.272V624h72zM200 768v-72H128V768h72z m144 0v-72H272V768h72z m144 0v-72H416V768h72z m144 0v-72H558.272V768h73.728z"  horiz-adv-x="1024" />

    
    <glyph glyph-name="gantt" unicode="&#59333;" d="M73.289143 822.491429h51.2v-819.2h-51.2zM73.728 18.285714h877.714286v-51.2h-877.714286zM146.285714 603.428571h292.571429v-146.285714H146.285714V603.428571z m512-219.428571h292.571429v-146.285714H658.285714V384zM438.857143 474.843429h219.428571v-123.977143H438.857143z"  horiz-adv-x="1024" />

    
    <glyph glyph-name="allitem" unicode="&#59067;" d="M454.729143 822.857143H92.233143A19.163429 19.163429 0 0 1 73.142857 803.766857v-362.496c0-10.532571 8.557714-19.163429 19.090286-19.163428h362.496a19.163429 19.163429 0 0 1 19.163428 19.163428V803.766857A19.163429 19.163429 0 0 1 454.729143 822.857143z m477.037714 0H569.270857a19.163429 19.163429 0 0 1-19.163428-19.090286v-362.496c0-10.532571 8.630857-19.163429 19.163428-19.163428h362.496A19.163429 19.163429 0 0 1 950.857143 441.270857V803.766857A19.163429 19.163429 0 0 1 931.766857 822.857143zM454.729143 345.819429H92.233143a19.163429 19.163429 0 0 1-19.090286-19.017143v-362.569143c0-10.459429 8.557714-19.090286 19.090286-19.090286h362.496a19.163429 19.163429 0 0 1 19.163428 19.090286V326.729143a19.163429 19.163429 0 0 1-19.163428 19.163428v-0.073142z m477.037714 0H569.270857a19.163429 19.163429 0 0 1-19.163428-19.017143v-362.569143c0-10.459429 8.630857-19.090286 19.163428-19.090286h362.496a19.163429 19.163429 0 0 1 19.090286 19.090286V326.729143a19.163429 19.163429 0 0 1-19.090286 19.163428z"  horiz-adv-x="1024" />

    
    <glyph glyph-name="quote_28" unicode="&#59066;" d="M877.714286 822.857143c80.676571 0 146.285714-65.609143 146.285714-146.285714s-65.609143-146.285714-146.285714-146.285715a146.541714 146.541714 0 0 0-141.641143 109.714286H287.926857l-0.731428-2.742857c96.438857-57.965714 168.338286-153.965714 216.32-286.610286 55.808-154.697143 132.534857-233.618286 228.681142-244.114286A146.505143 146.505143 0 0 0 877.714286 237.714286c80.676571 0 146.285714-65.609143 146.285714-146.285715s-65.609143-146.285714-146.285714-146.285714a146.505143 146.505143 0 0 0-138.459429 99.035429c-138.313143 6.765714-239.725714 105.728-305.810286 288.548571-41.472 114.980571-100.827429 197.046857-177.371428 247.259429A145.810286 145.810286 0 0 0 146.285714 530.285714c-80.676571 0-146.285714 65.609143-146.285714 146.285715s65.609143 146.285714 146.285714 146.285714a146.541714 146.541714 0 0 0 141.677715-109.714286h448.073142A146.541714 146.541714 0 0 0 877.714286 822.857143z m0-73.142857c-40.228571 0-73.142857-32.914286-73.142857-73.142857s32.914286-73.142857 73.142857-73.142858 73.142857 32.914286 73.142857 73.142858-32.914286 73.142857-73.142857 73.142857zM146.285714 749.714286c-40.228571 0-73.142857-32.914286-73.142857-73.142857s32.914286-73.142857 73.142857-73.142858c30.976 0 57.636571 19.529143 68.242286 46.884572V702.829714A73.435429 73.435429 0 0 1 146.285714 749.714286z"  horiz-adv-x="1024" />

    
    <glyph glyph-name="import_json" unicode="&#59063;" d="M170.666667 256h85.333333v-213.333333h512V725.333333H256v-213.333333H170.666667V768a42.666667 42.666667 0 0 0 42.666666 42.666667h597.333334a42.666667 42.666667 0 0 0 42.666666-42.666667v-768a42.666667 42.666667 0 0 0-42.666666-42.666667H213.333333a42.666667 42.666667 0 0 0-42.666666 42.666667v256z m256 170.666667V554.666667l213.333333-170.666667-213.333333-170.666667v128H85.333333v85.333334h341.333334z"  horiz-adv-x="1024" />

    
    <glyph glyph-name="export_json" unicode="&#59064;" d="M384 768v-85.333333H170.666667v-597.333334h682.666666v384h85.333334v-426.666666a42.666667 42.666667 0 0 0-42.666667-42.666667H128a42.666667 42.666667 0 0 0-42.666667 42.666667V725.333333a42.666667 42.666667 0 0 0 42.666667 42.666667h256z m424.533333-85.333333L682.666667 808.533333 742.997333 868.864l227.84-227.84A25.6 25.6 0 0 0 952.746667 597.333333H597.333333a85.333333 85.333333 0 0 1-85.333333-85.333333v-256h-85.333333V512a170.666667 170.666667 0 0 0 170.666666 170.666667h211.2z"  horiz-adv-x="1024" />

    
    <glyph glyph-name="wf_json" unicode="&#59060;" d="M472.283429 21.650286a28.708571 28.708571 0 1 0 0-57.380572H216.795429C167.570286-35.730286 128 4.955429 128 54.765714V677.101714c0 49.810286 39.588571 90.496 88.795429 90.496h510.957714c49.225143 0 88.795429-40.685714 88.795428-90.496v-193.590857a28.708571 28.708571 0 0 0-57.380571 0V677.101714c0 18.468571-14.262857 33.097143-31.414857 33.097143H216.795429c-17.170286 0-31.414857-14.628571-31.414858-33.097143v-622.354285c0-18.468571 14.262857-33.097143 31.414858-33.097143h255.488zM749.714286 329.142857c-100.992 0-182.857143-81.865143-182.857143-182.857143s81.865143-182.857143 182.857143-182.857143 182.857143 81.865143 182.857143 182.857143-81.865143 182.857143-182.857143 182.857143z m-15.232-91.428571a15.232 15.232 0 1 0 30.482285 0v-108.361143a15.232 15.232 0 0 0-30.482285 0V237.714286zM749.714286 54.857143a21.430857 21.430857 0 1 0 0 42.861714A21.430857 21.430857 0 0 0 749.714286 54.857143zM335.780571 548.571429c13.403429 0 24.411429-10.642286 24.941715-24.118858v-92.068571h83.108571v9.691429c0 10.752 4.242286 21.065143 11.794286 28.672 7.533714 7.588571 17.773714 11.867429 28.452571 11.867428h152.246857c22.235429 0 40.246857-18.139429 40.246858-40.521143v-52.864a40.393143 40.393143 0 0 0-40.228572-40.539428h-152.246857c-22.235429 0-40.246857 18.157714-40.246857 40.539428v-7.058285h-83.108572v-117.156572h83.090286v-7.058286c0 10.752 4.242286 21.065143 11.794286 28.653715 7.533714 7.606857 17.773714 11.885714 28.452571 11.885714h97.28A200.393143 200.393143 0 0 1 530.285714 164.571429h-46.189714c-22.235429 0-40.246857 18.139429-40.246857 40.521142v9.691429H310.857143V524.434286A25.033143 25.033143 0 0 0 335.780571 548.571429z"  horiz-adv-x="1024" />

    
    <glyph glyph-name="df_json" unicode="&#59062;" d="M472.283429 21.650286a28.708571 28.708571 0 1 0 0-57.380572H216.795429C167.570286-35.730286 128 4.955429 128 54.765714V677.101714c0 49.810286 39.588571 90.496 88.795429 90.496h510.957714c49.225143 0 88.795429-40.685714 88.795428-90.496v-193.590857a28.708571 28.708571 0 0 0-57.380571 0V677.101714c0 18.468571-14.262857 33.097143-31.414857 33.097143H216.795429c-17.170286 0-31.414857-14.628571-31.414858-33.097143v-622.354285c0-18.468571 14.262857-33.097143 31.414858-33.097143h255.488zM749.714286 329.142857c-100.992 0-182.857143-81.865143-182.857143-182.857143s81.865143-182.857143 182.857143-182.857143 182.857143 81.865143 182.857143 182.857143-81.865143 182.857143-182.857143 182.857143z m-15.232-91.428571a15.232 15.232 0 1 0 30.482285 0v-108.361143a15.232 15.232 0 0 0-30.482285 0V237.714286zM749.714286 54.857143a21.430857 21.430857 0 1 0 0 42.861714A21.430857 21.430857 0 0 0 749.714286 54.857143zM630.857143 351.451429v-20.681143a220.251429 220.251429 0 0 1-83.693714-99.949715h-129.042286v-33.737142a14.299429 14.299429 0 0 0-8.228572-12.928 13.897143 13.897143 0 0 0-15.030857 2.157714l-79.140571 69.229714a14.317714 14.317714 0 0 0 0 21.558857l79.140571 69.248a13.897143 13.897143 0 0 0 15.030857 2.194286c5.010286-2.322286 8.228571-7.405714 8.228572-12.982857v-33.700572h118.619428c24.923429 0 47.670857 14.445714 58.532572 37.229715l8.850286 18.56c6.491429 13.641143 26.733714 8.923429 26.733714-6.217143z m-65.590857 191.36l80.475428-71.131429c5.065143-4.461714 7.972571-10.971429 7.972572-17.810286s-2.925714-13.348571-7.972572-17.810285l-80.493714-71.149715c-14.884571-13.165714-38.016-2.322286-38.016 17.828572v25.728H415.268571a57.344 57.344 0 0 1-51.730285-33.225143l-9.014857-19.053714c-10.605714-22.509714-43.666286-14.774857-43.666286 10.24v38.674285a95.451429 95.451429 0 0 0 26.953143 66.614857 90.733714 90.733714 0 0 0 65.005714 27.538286h124.434286v25.746286c0 20.114286 23.094857 30.957714 38.034285 17.810286z"  horiz-adv-x="1024" />

    
    <glyph glyph-name="file_json" unicode="&#59329;" d="M835.419429 639.067429l-100.918858 104.045714c-21.979429 22.601143-65.353143 41.179429-96.457142 41.179428H298.934857c-31.122286 0-56.502857-26.221714-56.502857-58.221714v-281.856h45.202286V726.070857c0 6.326857 5.248 11.629714 11.337143 11.629714h339.126857c3.328 0 7.204571-0.438857 11.282285-1.243428v-185.106286h179.675429c0.804571-4.205714 1.225143-27.209143 1.225143-30.756571v-497.28a11.648 11.648 0 0 0-11.337143-11.629715H298.934857a11.684571 11.684571 0 0 0-11.337143 11.629715v84.150857h-45.220571v-84.150857c0-32.054857 25.380571-58.221714 56.502857-58.221715h520.009143c31.122286 0 56.502857 26.148571 56.502857 58.221715V520.539429c0.054857 32.073143-17.956571 95.908571-39.972571 118.528z m-139.922286-46.08v116.406857c2.852571-1.956571 5.504-4.169143 7.936-6.637715l101.394286-101.705142c2.450286-2.486857 4.662857-5.193143 6.656-8.064h-115.986286zM731.337143 430.537143H163.017143c-17.865143 0-32.365714-14.08-32.365714-31.488v-216.283429c0-17.389714 14.500571-31.488 32.365714-31.488h568.32c17.865143 0 32.347429 14.08 32.347428 31.488V399.049143c0 17.389714-14.482286 31.488-32.365714 31.488z m-460.214857-65.718857v-105.472c0-15.030857-3.693714-26.203429-11.081143-33.572572-7.369143-7.369143-19.529143-11.044571-36.425143-11.044571a138.971429 138.971429 0 0 0-24.027429 2.267428v28.708572c7.04-1.170286 13.074286-1.737143 18.121143-1.737143 4.461714 0 7.954286 0.768 10.514286 2.322286a14.848 14.848 0 0 1 5.613714 5.686857c1.188571 2.230857 1.792 6.144 1.792 11.702857V364.8h35.474286z m133.833143-32.493715l-30.262858-9.856c-4.077714 11.702857-12.690286 17.554286-25.856 17.554286-14.08 0-21.101714-4.443429-21.101714-13.330286 0-3.529143 1.316571-6.528 3.949714-8.978285 2.633143-2.450286 8.576-4.589714 17.828572-6.4 15.488-3.035429 26.806857-6.107429 34.011428-9.216 7.168-3.108571 13.220571-8.100571 18.157715-14.994286 4.937143-6.893714 7.387429-14.592 7.387428-23.113143 0-13.348571-5.284571-24.905143-15.835428-34.651428-10.569143-9.746286-26.221714-14.628571-46.976-14.628572-15.542857 0-28.8 3.474286-39.734857 10.349714-10.916571 6.893714-18.139429 17.133714-21.613715 30.72l32.932572 7.241143c3.693714-13.787429 13.988571-20.681143 30.866285-20.681143 8.137143 0 14.208 1.536 18.212572 4.608 3.986286 3.053714 5.997714 6.729143 5.997714 10.971429 0 4.352-1.828571 7.698286-5.449143 10.093714-3.638857 2.377143-10.624 4.608-20.992 6.710857-19.328 3.894857-33.097143 9.234286-41.325714 15.981715-8.228571 6.747429-12.342857 16.621714-12.342857 29.622857 0 13.129143 4.918857 24.210286 14.72 33.225143 9.819429 9.033143 23.149714 13.531429 39.972571 13.531428 29.769143 0 48.932571-11.574857 57.453715-34.742857z m84.370285-117.595428c-20.443429 0-36.260571 7.460571-47.451428 22.418286-11.190857 14.939429-16.786286 33.024-16.786286 54.253714 0 21.577143 5.668571 39.588571 17.005714 54.034286 11.337143 14.445714 27.483429 21.668571 48.457143 21.668571 21.211429 0 37.193143-7.716571 47.963429-23.131429 10.788571-15.414857 16.182857-33.042286 16.182857-52.900571 0-21.430857-5.558857-39.533714-16.676572-54.253714-11.117714-14.738286-27.355429-22.089143-48.694857-22.089143z m1.005715 124.105143c-18.651429 0-27.977143-15.963429-27.977143-47.872 0-32 9.325714-47.981714 27.977143-47.981715 18.066286 0 27.099429 15.963429 27.099428 47.872 0 32-9.033143 47.981714-27.099428 47.981715z m204.434285 25.984v-147.821715h-30.354285l-59.428572 99.84c0.073143-2.523429 0.146286-4.169143 0.219429-4.973714 0.292571-2.523429 0.438857-4.662857 0.438857-6.4v-88.466286h-27.702857v147.821715h38.345143l51.657142-87.168a104.502857 104.502857 0 0 0-0.658285 9.856V364.8h27.465143z"  horiz-adv-x="1024" />

    
    <glyph glyph-name="ai_project" unicode="&#59032;" d="M491.3152-89.1904l-379.392 273.8688a39.936 39.936 0 0 0-5.6832 58.6752c12.288 13.312 31.744 15.7184 46.5408 5.4272l339.0464-235.8272c12.288-8.5504 28.16-8.5504 40.3456 0l338.176 236.6464a35.328 35.328 0 0 0 46.592-5.4784l0.9216-0.9216a39.936 39.936 0 0 0-5.8368-58.5216l-379.392-273.92a34.816 34.816 0 0 0-41.3184 0zM491.3152 79.4112l-379.392 273.92a39.936 39.936 0 0 0-5.6832 58.6752c12.288 13.312 31.744 15.7184 46.5408 5.4784l339.0464-235.8272c12.288-8.4992 28.16-8.4992 40.3456 0l338.176 236.5952a35.1232 35.1232 0 0 0 46.592-5.4272l0.9216-0.9728a39.936 39.936 0 0 0-5.8368-58.5216l-379.392-273.92a35.2256 35.2256 0 0 0-41.3184 0zM533.0944 825.7024l378.624-251.8016a35.7376 35.7376 0 0 0 0-59.904l-378.624-251.6992a38.5024 38.5024 0 0 0-42.1888 0L112.2816 514.0992a35.7376 35.7376 0 0 0 0 59.904l378.624 251.6992a38.5024 38.5024 0 0 0 42.1888 0z m101.4784-168.0896a31.232 31.232 0 0 1-44.1344 8.7552l-224.5632-158.208a33.8944 33.8944 0 0 1-8.448-45.7728 31.232 31.232 0 0 1 44.1344-8.7552l224.5632 158.208a33.8944 33.8944 0 0 1 8.448 45.7728z"  horiz-adv-x="1024" />

    
    <glyph glyph-name="ai" unicode="&#59029;" d="M926.976 618.816C864.64 752.32 722.432 832 546.56 832 225.856 832 167.872 520.192 158.656 446.208c-20.864-17.664-62.976-58.112-87.936-114.432-9.856-22.144-8.832-44.8 2.944-63.872 22.72-36.928 81.92-50.816 122.304-56.128v-211.648c0-18.688 15.168-33.856 33.856-33.856h203.584a33.792 33.792 0 1 1 0 67.648H263.68v208.704a33.856 33.856 0 0 1-32.192 33.792c-44.032 2.176-93.696 15.488-98.944 27.968 25.92 58.24 77.76 96.64 78.272 96.96a34.176 34.176 0 0 1 13.824 25.408c0.832 13.76 24.064 337.664 321.92 337.664 148.992 0 268.288-65.088 319.232-174.144 56.32-120.704 18.048-274.24-105.024-421.376a33.92 33.92 0 0 1-7.872-21.632v-141.952a33.856 33.856 0 1 1 67.584 0V135.04c134.336 165.312 173.184 341.12 106.624 483.84M679.488 596.992a33.856 33.856 0 0 1-33.792-33.856v-299.072a33.856 33.856 0 0 1 67.648 0V563.136a33.856 33.856 0 0 1-33.856 33.856z m-228.864-230.4l27.136 75.52 25.792-75.52H450.56z m59.904 188.672a33.792 33.792 0 0 1-31.744 22.912h-0.192a33.856 33.856 0 0 1-31.808-22.4L342.4 265.472a33.792 33.792 0 0 1 63.616-23.04l20.224 56.64h100.48l19.072-56a33.792 33.792 0 0 1 64 21.76L510.528 555.392v-0.064z"  horiz-adv-x="1024" />

    
    <glyph glyph-name="run" unicode="&#59134;" d="M746.048 384L268.8 649.28v-530.56L746.048 384z m130.56-15.36L219.712 3.648c-7.552-4.352-14.08-4.736-19.584-1.536-5.376 3.392-8.192 9.216-8.192 17.856V748.032c0 8.576 2.688 14.464 8.192 17.856 5.44 3.2 12.032 2.816 19.584-1.536L876.544 399.36c7.552-4.352 11.392-9.408 11.392-15.36s-3.84-11.008-11.392-15.36z"  horiz-adv-x="1024" />

    
    <glyph glyph-name="add_node" unicode="&#59028;" d="M395.136 64c5.184-22.08 12.16-43.456 20.736-64H128a64 64 0 0 0-64 64V768a64 64 0 0 0 64 64h704a64 64 0 0 0 64-64v-203.136a415.36 415.36 0 0 1-64 9.92V768H128v-704h267.136zM679.232 243.968V472.96c0 5.952 1.92 10.752 5.76 14.4a22.72 22.72 0 0 0 14.144 6.208h48.128c5.504-0.448 10.24-2.56 14.08-6.208 3.904-3.648 5.824-8.448 5.824-14.4v-228.928h228.992c5.952 0 10.752-1.92 14.4-5.888 3.712-3.84 5.76-8.576 6.208-14.08v-48.128a21.888 21.888 0 0 0-6.528-14.08 19.2 19.2 0 0 0-14.08-5.824h-228.928v-228.992a19.2 19.2 0 0 0-5.888-14.08 21.888 21.888 0 0 0-14.08-6.528h-48.128a22.72 22.72 0 0 0-14.08 6.208 18.88 18.88 0 0 0-5.824 14.4v228.992H450.24a18.88 18.88 0 0 0-14.4 5.76 22.72 22.72 0 0 0-6.208 14.144v48.128a22.72 22.72 0 0 0 6.208 14.08 18.88 18.88 0 0 0 14.4 5.824h228.992z"  horiz-adv-x="1024" />

    
    <glyph glyph-name="future_growth" unicode="&#59260;" d="M833.877333 375.808L515.584 853.333333 197.12 375.808h212.224v-62.293333a393.984 393.984 0 0 0-230.656-358.570667L170.666667-48.64h26.453333a424.448 424.448 0 0 1 424.533333 424.448h212.224z"  horiz-adv-x="1024" />

    
    <glyph glyph-name="growrth_tag" unicode="&#59261;" d="M1020.212746 895.936239v-860.772105c-333.469489-75.875467-590.808468-42.082192-772.144458 101.316065C66.668537 279.942217-15.264215 533.072976 2.333792 895.872478H1020.212746z m-320.207223-147.92528l-281.185554-230.240598 128.478207-39.340473-11.476962-37.746451A249.496389 249.496389 0 0 0 329.682236 266.233624l-5.610959-0.637609 16.067746-4.909589a268.81594 268.81594 0 0 1 335.70112 178.53051l128.541968-39.340473-104.376588 348.134496z"  horiz-adv-x="1024" />

    
    <glyph glyph-name="skipview" unicode="&#59059;" d="M332.16 60.86400000000003l353.92 322.496-354.56 323.2a33.856 33.856 0 0 0-10.176 34.816 37.952 37.952 0 0 0 27.968 25.408 42.24 42.24 0 0 0 38.144-9.344l380.16-346.24c0.896-0.768 1.984-1.152 2.88-1.92 15.36-14.4 15.36-37.312 0-51.712a22.08 22.08 0 0 0-3.008-1.856l-379.456-345.728a42.304 42.304 0 0 0-55.232 0.512 33.728 33.728 0 0 0-0.64 50.368z"  horiz-adv-x="1024" />

    
    <glyph glyph-name="national" unicode="&#59184;" d="M999.935269 739.693714l-49.298286-22.235428a6.802286 6.802286 0 0 0-6.802286 0.804571l-49.517714 38.4-0.731429 0.658286-50.980571 53.248a6.948571 6.948571 0 0 1-4.242286 2.048l-33.060571 2.925714a6.436571 6.436571 0 0 1-4.315429-1.170286l-28.013714-18.358857a7.021714 7.021714 0 0 1-2.852572-3.657143l-19.382857-66.048a6.582857 6.582857 0 0 0-3.949714-4.388571l-22.162286-8.777143a6.729143 6.729143 0 0 1-4.242285-6.290286v-22.820571c0-3.145143 2.194286-5.924571 5.266285-6.582857l45.348572-9.801143c5.851429-1.243429 7.314286-8.923429 2.267428-12.214857l-44.178285-28.525714c-0.219429-0.146286-0.438857-0.438857-0.658286-0.512L632.758126 546.669714a6.729143 6.729143 0 0 0-4.022857-1.609143l-42.788572-1.536a6.070857 6.070857 0 0 1-2.486857-0.585142l-41.472-18.432a6.582857 6.582857 0 0 0-5.632 0.146285l-55.149714 26.697143a6.802286 6.802286 0 0 1-2.194286 0.731429l-72.338286 8.557714a6.729143 6.729143 0 0 0-5.339428 4.169143l-10.24 25.014857a6.363429 6.363429 0 0 1-3.364572 3.510857l-62.464 29.988572a6.656 6.656 0 0 0-3.803428 5.412571l-1.243429 13.458286v0.804571l0.731429 28.598857a7.094857 7.094857 0 0 1-0.950857 3.657143l-26.624 42.569143a6.802286 6.802286 0 0 1-9.069715 2.194286l-43.300571-25.6-1.316572-1.024-9.654857-9.654857c-1.462857-1.462857-3.657143-2.194286-5.705143-1.901715l-21.942857 2.998857a6.802286 6.802286 0 0 1-7.168-3.949714l-10.386285-23.332571a6.582857 6.582857 0 0 0-6.290286-3.876572l-28.379429 0.658286a6.802286 6.802286 0 0 1-6.582857-4.754286l-15.945143-51.931428a6.582857 6.582857 0 0 0-5.12-4.608l-75.556571-15.872c-0.365714-0.146286-0.731429-0.146286-1.024-0.365715l-41.472-15.506285A6.729143 6.729143 0 0 1 0.072411 553.837714l3.145143-17.408a18.358857 18.358857 0 0 1 0.365715-1.243428l27.501714-69.778286 0.073143-0.292571c1.609143-3.364571 25.6-55.222857 25.234285-60.416-0.292571-4.388571-12.214857-34.962286-16.384-45.348572a6.582857 6.582857 0 0 1 0.804572-6.363428l10.752-14.774858 1.170286-1.243428 90.404571-75.337143c0.438857-0.512 1.024-0.731429 1.536-1.024l139.556571-61.805714c1.389714-0.585143 2.852571-0.731429 4.169143-0.512l83.821715 18.285714a6.875429 6.875429 0 0 0 4.681142-0.658286l32.621715-17.92a6.582857 6.582857 0 0 0 3.145143-7.826285l-19.821715-64.512a6.582857 6.582857 0 0 1 2.121143-7.094858l71.899429-60.928a6.875429 6.875429 0 0 1 6.875428-1.097142l88.283429 35.108571a6.582857 6.582857 0 0 0 5.851428-0.585143l57.636572-35.108571 0.512-0.292572 25.819428-19.309714c0.585143-0.438857 1.243429-0.731429 1.901715-1.024l11.337143-3.657143a6.656 6.656 0 0 1 8.777142 5.558857l1.170286 11.776a6.509714 6.509714 0 0 0 3.510857 5.12l144.237715 79.725715a6.509714 6.509714 0 0 1 2.706285 2.779428l51.419429 99.181714a6.582857 6.582857 0 0 1 0.731428 3.218286l-2.340571 79.213714c0 1.462857-0.585143 2.925714-1.536 4.022858l-30.573714 36.937142-21.869715 27.721143a6.729143 6.729143 0 0 0 0.146286 8.411429l33.499429 40.813714a7.314286 7.314286 0 0 0 2.413714 1.755429 6.729143 6.729143 0 0 1-1.170286 12.580571l-15.36 4.242286c-0.512 0.146286-1.097143 0.292571-1.755428 0.292571h-41.179429a6.656 6.656 0 0 0-5.412571 2.633143l-10.093715 13.897143a6.802286 6.802286 0 0 0 1.243429 9.362286l49.810286 39.058285c4.461714 3.584 11.117714 0.073143 10.898285-5.632l-0.438857-8.850285a6.729143 6.729143 0 0 1 9.362286-6.582857l21.138286 9.508571a6.290286 6.290286 0 0 1 1.682285 1.097143l99.181715 88.283428a6.656 6.656 0 0 1 2.194285 4.461715l4.388572 52.736a6.656 6.656 0 0 0 6.363428 6.144l10.020572 0.365714a6.582857 6.582857 0 0 1 6.363428 6.290286l4.754286 65.097143c0.292571 5.193143-4.973714 8.923429-9.508571 6.802285z m-121.197715-583.753143l-14.336-43.739428 18.505143-26.038857 14.336 27.721143 10.971429 29.330285-7.606857 20.992-21.869715-8.265143z m-233.325714-140.361142l-20.187429-12.580572 14.336-16.822857 18.505143 4.169143 21.138286 20.187428-6.729143 11.776-27.062857-6.729142z"  horiz-adv-x="1024" />

    
    <glyph glyph-name="upload1" unicode="&#59058;" d="M512 853.333333c259.2 0 469.333333-210.133333 469.333333-469.333333s-210.133333-469.333333-469.333333-469.333333S42.666667 124.8 42.666667 384 252.8 853.333333 512 853.333333z m5.077333-265.984c-1.706667 0-3.413333-0.170667-5.034666-0.597333a21.973333 21.973333 0 0 1-20.650667-5.845333l-176.298667-176.298667a22.016 22.016 0 0 1 0-31.146667l10.368-10.325333a22.016 22.016 0 0 1 31.146667 0l126.037333 126.037333v-310.485333l0.341334-4.352c2.133333-14.165333 14.293333-25.002667 29.013333-25.002667l4.352 0.298667a29.354667 29.354667 0 0 1 24.96 29.013333v310.613334l126.08-126.165334a22.016 22.016 0 0 1 31.146667 0l10.368 10.410667a22.016 22.016 0 0 1 0 31.146667l-176.298667 176.256a22.016 22.016 0 0 1-15.530667 6.442666z"  horiz-adv-x="1024" />

    
    <glyph glyph-name="dl_workflow" unicode="&#59056;" d="M233.728 211.49866699999995h176.213333v-14.848a85.333333 85.333333 0 0 0 85.333334 85.333333h322.816a85.333333 85.333333 0 0 0 85.333333-85.333333V85.33333300000004a85.333333 85.333333 0 0 0-85.333333-85.333333h-322.773334a85.333333 85.333333 0 0 0-85.333333 85.333333v20.394667H128V757.802667a52.906667 52.906667 0 0 0 105.728 0v-193.877334h176.213333v20.437334a85.333333 85.333333 0 0 0 85.333334 85.333333h322.816a85.333333 85.333333 0 0 0 85.333333-85.333333v-111.317334a85.333333 85.333333 0 0 0-85.333333-85.333333h-322.773334a85.333333 85.333333 0 0 0-85.333333 85.333333v-14.848h-176.213333v-246.698666z"  horiz-adv-x="1024" />

    
    <glyph glyph-name="dl_dataflow" unicode="&#59057;" d="M839.893333 359.594667c16.213333 33.578667 66.816 21.973333 66.816-15.274667v-92.714667a204.501333 204.501333 0 0 0-204.672-204.373333H374.826667v-83.029333a35.2 35.2 0 0 0-58.154667-26.538667l-197.845333 170.496a35.029333 35.029333 0 0 0 0 53.077333l197.845333 170.538667a35.157333 35.157333 0 0 0 58.154667-26.581333v-82.986667h296.576a162.56 162.56 0 0 1 146.346666 91.690667zM627.84 699.434667V761.130667c0 48.256 56.746667 74.24 93.44 42.709333l197.802667-170.496a56.362667 56.362667 0 0 0 0-85.418667l-197.845334-170.538666c-36.608-31.573333-93.44-5.546667-93.44 42.752V481.792h-275.2a141.226667 141.226667 0 0 1-127.146666-79.658667l-22.186667-45.653333c-26.069333-53.973333-107.306667-35.413333-107.306667 24.533333V473.728a225.834667 225.834667 0 0 0 226.005334 225.706667h305.877333z"  horiz-adv-x="1024" />

    
    <glyph glyph-name="relied" unicode="&#58888;" d="M620.397714 507.392h161.865143a121.270857 121.270857 0 1 0 0-242.541714H620.397714v-80.676572h161.865143c111.177143 0 201.874286 90.843429 201.874286 201.874286 0 111.177143-90.697143 202.020571-201.874286 202.020571H620.397714v-80.676571zM377.856 264.777143v-80.676572H215.990857a202.459429 202.459429 0 0 0-201.874286 201.874286c0 111.177143 90.770286 202.020571 201.874286 202.020572h161.865143v-80.676572H215.990857a121.270857 121.270857 0 1 1 0-242.541714h161.865143z m299.885714 121.270857c0-24.356571-20.333714-44.617143-44.617143-44.617143H365.129143a45.056 45.056 0 0 0-44.617143 44.617143c0 24.356571 20.260571 44.617143 44.617143 44.617143h267.849143c24.356571 0 44.617143-20.260571 44.617143-44.617143z"  horiz-adv-x="1024" />

    
    <glyph glyph-name="fcst_built_in" unicode="&#59256;" d="M849.066667 218.737778a62.577778 62.577778 0 0 0 62.577777-62.577778v-86.016a62.577778 62.577778 0 0 0-62.577777-62.577778H176.355556a62.577778 62.577778 0 0 0-62.577778 62.577778v86.016a62.577778 62.577778 0 0 0 62.577778 62.577778h672.711111zM266.296889 155.363556H184.149333v-98.531556h82.147556V155.306667z m582.769778 330.922666a62.577778 62.577778 0 0 0 62.577777-62.577778v-86.072888a62.577778 62.577778 0 0 0-62.577777-62.577778H176.355556a62.577778 62.577778 0 0 0-62.577778 62.577778V423.651556a62.577778 62.577778 0 0 0 62.577778 62.577777h672.711111zM266.296889 422.912H184.149333v-98.588444h82.147556V422.912zM849.066667 753.777778a62.577778 62.577778 0 0 0 62.577777-62.577778v-86.016a62.577778 62.577778 0 0 0-62.577777-62.577778H176.355556a62.577778 62.577778 0 0 0-62.577778 62.577778V691.2a62.577778 62.577778 0 0 0 62.577778 62.577778h672.711111zM266.296889 690.403556H184.149333v-98.531556h82.147556V690.403556z"  horiz-adv-x="1024" />

    
    <glyph glyph-name="fcst_file" unicode="&#59257;" d="M796.501333 499.484444h-146.432c-48.355556 0-87.893333 40.675556-87.893333 90.453334V740.693333a29.809778 29.809778 0 0 1-29.297778 30.151111h-234.382222c-48.355556 0-87.893333-40.732444-87.893333-90.453333v-572.928c0-49.777778 39.537778-90.453333 87.893333-90.453333h439.466667c48.355556 0 87.836444 40.675556 87.836444 90.453333v361.813333a29.809778 29.809778 0 0 1-29.297778 30.151112z m23.438223 126.634667l-134.712889 138.695111a18.545778 18.545778 0 0 1-14.677334 6.030222 20.309333 20.309333 0 0 1-20.48-21.105777v-99.555556c0-33.109333 26.339556-60.302222 58.595556-60.302222h96.654222c11.719111 0 20.48 9.102222 20.48 21.162667a19.683556 19.683556 0 0 1-5.859555 15.075555z"  horiz-adv-x="1024" />

    
    <glyph glyph-name="new_fcst" unicode="&#59254;" d="M1706.666667 896v-967.111111c-540.444444-85.333333-957.610667-47.388444-1251.555556 113.777778C161.166222 203.832889 28.444444 488.277333 56.888889 896h1649.777778zM1058.133333 573.326222c-20.935111-2.275556-35.953778-3.185778-58.709333-3.185778l-157.866667 0.113778c-14.620444 0.170667-24.348444 0.568889-37.376 1.251556 2.730667-21.390222 3.640889-35.043556 3.640889-58.709334v-246.215111l-0.227555-20.48a307.825778 307.825778 0 0 0-3.413334-39.594666l21.788445 0.910222c4.835556 0.170667 9.955556 0.284444 15.815111 0.341333l162.190222 0.113778c27.761778 0 42.325333-0.910222 58.709333-3.185778v60.529778a435.2 435.2 0 0 0-58.254222-3.185778h-136.533333V369.436444h111.047111c28.216889 0 40.504889-0.455111 59.164444-3.185777V425.870222c-20.024889-2.275556-35.498667-3.185778-59.164444-3.185778h-110.592V516.437333h131.072c26.851556 0 41.415111-0.910222 58.709333-3.185777V573.326222z m-556.600889-3.185778H430.535111c2.730667-18.659556 3.640889-35.043556 3.640889-58.709333v-234.837333l-0.341333-24.519111c-0.512-18.773333-1.706667-33.450667-3.299556-44.202667h66.446222a453.859556 453.859556 0 0 0-3.584 55.751111l-0.056889 161.792-1.365333 39.594667-1.820444 23.210666c10.922667-21.390222 22.300444-40.96 30.947555-54.613333l117.418667-177.038222c13.198222-20.024889 21.390222-33.223111 29.127111-48.696889H739.555556a296.448 296.448 0 0 0-3.584 46.648889l-0.056889 252.814222c0 27.761778 0.910222 44.600889 3.640889 62.805333h-66.446223c2.730667-17.294222 3.640889-35.953778 3.640889-62.805333V354.417778c0-19.114667 1.365333-46.421333 3.185778-64.170667-10.012444 18.204444-24.576 41.870222-35.498667 58.254222L529.294222 521.898667c-15.473778 23.210667-23.665778 36.864-27.761778 48.241777z m659.911112 0h-72.817778c4.209778-9.728 7.736889-19.740444 12.231111-34.247111l5.973333-19.911111 81.408-293.717333 3.242667-14.392889h60.529778a242.346667 242.346667 0 0 0 5.632 27.363556l4.835555 18.602666 48.241778 169.301334c2.901333 10.410667 6.087111 22.414222 9.500444 37.888l4.152889 20.366222c4.096-23.210667 8.192-40.504889 13.198223-58.254222l48.696888-169.301334c4.551111-15.473778 9.102222-35.043556 10.922667-45.966222h60.984889c0.682667 4.778667 1.024 7.168 1.649778 9.955556l3.356444 12.344888 6.371556 25.031112 75.776 271.303111c3.697778 12.970667 6.599111 22.186667 9.784889 30.72l5.006222 12.913777h-72.817778a242.403556 242.403556 0 0 0-7.736889-48.696888L1437.240889 349.866667c-0.910222-4.096-4.551111-21.845333-5.916445-29.127111l-1.024-5.916445-3.982222-20.48c-3.640889 17.066667-6.030222 27.875556-7.907555 35.896889l-4.835556 19.171556-53.873778 185.344a286.776889 286.776889 0 0 0-7.566222 35.384888h-55.978667c-1.365333-12.288-4.551111-27.306667-10.012444-46.421333l-53.191111-185.457778a648.533333 648.533333 0 0 1-6.087111-25.429333l-3.982222-18.488889c-1.137778 6.371556-2.56 13.880889-4.096 21.560889l-6.826667 31.687111-44.999111 184.718222a226.360889 226.360889 0 0 0-5.518222 37.831111z"  horiz-adv-x="1706" />

    
    <glyph glyph-name="node_stop" unicode="&#59049;" d="M0 384a512 512 0 1 1 1024 0A512 512 0 0 1 0 384zM401.088 568.128h221.888c48.768 0 73.152-24.384 73.152-73.152v-221.888c0-48.704-24.384-73.088-73.152-73.088H401.088c-48.704 0-73.088 24.32-73.088 73.088V494.976c0 48.768 24.32 73.152 73.088 73.152z"  horiz-adv-x="1024" />

    
    <glyph glyph-name="node_loading" unicode="&#59048;" d="M0 384a512 512 0 1 1 1024 0A512 512 0 0 1 0 384zM509.056 64a319.488 319.488 0 0 0-224 93.12C226.944 218.17600000000004 192 299.648 192 384a319.104 319.104 0 0 0 320 320 319.104 319.104 0 0 0 320-320 44.736 44.736 0 0 0-43.648-43.648 44.736 44.736 0 0 0-43.584 43.648c0 61.12-23.296 122.24-66.944 165.76C634.176 593.6 573.12 616.832 512 616.832A233.344 233.344 0 0 1 279.232 384 233.344 233.344 0 0 1 512 151.23199999999997c23.296 0 43.648-20.352 43.648-43.584 0-23.232-20.352-43.648-46.592-43.648z"  horiz-adv-x="1024" />

    
    <glyph glyph-name="instance_workflow" unicode="&#59045;" d="M545.052444 833.706667l406.755556-169.984c1.308444-0.568889 2.389333-1.080889 3.413333-1.649778l-3.413333 1.649778a34.986667 34.986667 0 0 0 21.504-32.426667l-0.113778-0.682667 0.056889-492.373333a35.271111 35.271111 0 0 0-24.803555-32.199111l-403.342223-168.618667a67.584 67.584 0 0 0-7.281777-2.503111 35.271111 35.271111 0 0 0-39.480889 0 67.584 67.584 0 0 0-7.224889 2.56l-403.342222 168.675556a35.100444 35.100444 0 0 0-24.803556 34.588444V631.352889c0 8.931556 3.299556 17.066667 8.760889 23.324444l0.967111 0.910223a33.223111 33.223111 0 0 0 6.883556 5.688888l0.910222 0.455112a27.477333 27.477333 0 0 0 3.868444 1.991111h0.170667l406.698667 169.984c17.180444 7.224889 36.579556 7.224889 53.816888 0zM132.949333 578.6737780000001v-415.345778l350.151111-146.318222V432.355556L132.892444 578.6737780000001z m770.275556-0.056889L553.016889 432.298667v-415.288889l350.151111 146.318222v415.288889z m-385.137778 190.236444L188.984889 631.352889 518.087111 493.795556l329.102222 137.500444-329.102222 137.500444z"  horiz-adv-x="1024" />

    
    <glyph glyph-name="select_col" unicode="&#59249;" d="M202.666667 408.917333a42.666667 42.666667 0 0 0 41.984-34.986666l0.682666-7.68v-355.584a42.666667 42.666667 0 0 0-84.650666-7.68l-0.682667 7.68V366.250667a42.666667 42.666667 0 0 0 42.666667 42.666666z m337.749333 302.165334a42.666667 42.666667 0 0 0 41.984-34.986667l0.682667-7.68v-656.384a42.666667 42.666667 0 0 0-84.650667-7.68l-0.682667 7.68V668.416a42.666667 42.666667 0 0 0 42.666667 42.666667z m320 0a42.666667 42.666667 0 0 0 42.666667-42.666667v-656.384a42.666667 42.666667 0 1 0-85.333334 0V668.416a42.666667 42.666667 0 0 0 42.666667 42.666667zM366.165333 808.96l4.522667-3.242667 22.442667-22.016a16.469333 16.469333 0 0 0 3.242666-19.456l-3.242666-4.437333-194.133334-192.938667a17.066667 17.066667 0 0 0-19.797333-3.242666l-4.437333 3.242666-127.146667 124.928a16.725333 16.725333 0 0 0-3.584 18.517334l2.645333 4.266666 21.930667 25.6a17.237333 17.237333 0 0 0 21.333333 3.925334l3.84-2.816 82.517334-81.066667a17.066667 17.066667 0 0 1 19.797333-3.157333l4.522667 3.242666L346.453333 805.546667a17.066667 17.066667 0 0 0 19.712 3.242666z"  horiz-adv-x="1024" />

    
    <glyph glyph-name="set_threshold" unicode="&#59250;" d="M512 659.626667c0 8.533333 3.072 15.957333 9.386667 22.186666a31.658667 31.658667 0 0 0 23.296 9.386667h420.010666a31.658667 31.658667 0 0 0 32.682667-32.085333 31.658667 31.658667 0 0 0-32.682667-32.085334H544.682667A31.658667 31.658667 0 0 0 512 659.626667z m-258.986667 0a66.56 66.56 0 0 1 19.2-46.08 61.696 61.696 0 0 1 45.568-18.005334 61.696 61.696 0 0 1 63.573334 63.573334 61.696 61.696 0 0 1-63.573334 63.573333 61.696 61.696 0 0 1-45.568-18.090667 65.194667 65.194667 0 0 1-19.2-44.970666z m194.816 0a129.706667 129.706667 0 0 0-32.682666-85.674667 126.122667 126.122667 0 0 0-81.066667-42.069333c-33.024-4.266667-62.634667 2.56-88.661333 20.48a132.693333 132.693333 0 0 0-53.077334 74.666666H59.306667a33.877333 33.877333 0 0 0-21.589334 9.898667 30.037333 30.037333 0 0 0-8.704 22.186667c0 8.874667 2.901333 16.298667 8.704 22.186666A33.877333 33.877333 0 0 0 59.306667 691.2h133.034666c9.386667 32.597333 27.050667 57.685333 53.077334 75.178667a125.013333 125.013333 0 0 0 88.661333 19.882666A128.170667 128.170667 0 0 0 447.829333 659.626667z m193.706667-291.584a66.56 66.56 0 0 1 19.2-46.08 61.696 61.696 0 0 1 45.482667-18.090667 61.696 61.696 0 0 1 63.573333 64.170667 61.696 61.696 0 0 1-63.573333 64.170666 61.696 61.696 0 0 1-45.482667-18.090666 66.56 66.56 0 0 1-19.2-46.08z m190.122667-32.682667c-9.386667-31.914667-27.050667-56.576-53.077334-74.069333a127.317333 127.317333 0 0 0-88.661333-20.48 124.928 124.928 0 0 0-112.64 127.146666 124.928 124.928 0 0 0 112.64 127.146667c33.024 3.925333 62.634667-2.816 88.661333-20.394667 26.026667-17.493333 43.776-42.154667 53.077334-74.069333h133.034666c9.386667-0.768 17.066667-4.096 23.296-9.898667 6.229333-5.802667 9.386667-13.397333 9.386667-22.698666 0-9.386667-3.157333-16.981333-9.386667-22.784a37.546667 37.546667 0 0 0-23.296-9.898667H831.658667zM512 368.042667c0-9.386667-3.072-16.981333-9.386667-22.784a37.546667 37.546667 0 0 0-23.296-9.898667H59.306667a32.682667 32.682667 0 0 0-21.589334 10.496 31.317333 31.317333 0 0 0-8.704 22.186667 32.682667 32.682667 0 0 0 30.293334 32.682666h420.010666c9.386667-0.853333 17.066667-4.181333 23.381334-9.984 6.229333-5.802667 9.301333-13.397333 9.301333-22.698666z m0-291.669334a31.658667 31.658667 0 0 0 32.682667 32.597334h420.010666a31.658667 31.658667 0 0 0 32.682667-32.085334 31.658667 31.658667 0 0 0-32.682667-32.085333H544.682667c-9.386667 0-17.066667 3.157333-23.381334 9.386667A30.293333 30.293333 0 0 0 512 76.373333z m-258.986667 0c0.768-17.92 7.168-32.938667 19.2-44.970666a61.696 61.696 0 0 1 45.568-18.090667 61.696 61.696 0 0 1 63.573334 63.573333 61.696 61.696 0 0 1-63.573334 63.573334 61.696 61.696 0 0 1-45.568-18.005334 66.56 66.56 0 0 1-19.2-46.08z m194.816 0a128.170667 128.170667 0 0 0-113.749333-126.634666 125.013333 125.013333 0 0 0-88.661333 19.882666 130.304 130.304 0 0 0-53.077334 75.178667H59.306667a33.877333 33.877333 0 0 0-21.589334 9.984 30.037333 30.037333 0 0 0-8.704 22.186667c0 8.874667 2.901333 16.213333 8.704 22.186666a33.877333 33.877333 0 0 0 21.589334 9.813334h133.034666c9.386667 31.914667 27.050667 56.832 53.077334 74.666666 26.026667 17.92 55.637333 24.746667 88.661333 20.48 33.024-4.266667 60.074667-18.346667 81.066667-42.069333s31.914667-52.309333 32.682666-85.674667z"  horiz-adv-x="1024" />

    
    <glyph glyph-name="max_arrow" unicode="&#59251;" d="M156.074667 313.002667v-236.970667L389.973333 311.978667l50.005334-50.346667-231.253334-233.130667h230.144V-42.666667H85.333333V313.002667h70.741334zM951.978667 810.666667v-355.669334h-70.656V691.968L647.338667 456.021333 597.333333 506.368l231.253334 233.130667H598.442667V810.666667h353.536z"  horiz-adv-x="1024" />

    
    <glyph glyph-name="min_arrow" unicode="&#59252;" d="M439.978667 284.330667v-355.669334h-70.656V165.546667l-233.984-235.946667-50.005334 50.346667 231.253334 233.130666H86.442667v71.168h353.536zM668.16 810.666667v-236.970667l233.898667 235.946667 50.005333-50.346667-231.253333-233.130667h230.144v-71.168H597.333333V810.666667h70.741334z"  horiz-adv-x="1024" />

    
    <glyph glyph-name="placeholder_file_empty" unicode="&#59243;" d="M256 896v-56.888889h-113.777778V896h113.777778z m227.555556 0v-56.888889h-113.777778V896h113.777778z m227.555555 0v-56.888889h-113.777778V896h113.777778z m239.502222-17.749333l-27.534222-49.777778A84.764444 84.764444 0 0 1 881.777778 839.111111h-56.888889V896h56.888889c24.405333 0 47.957333-6.200889 68.835555-17.749333zM1024 643.413333h-56.888889v113.208889l56.832 1.820445L1024 643.413333z m0-227.555555h-56.888889v113.777778h56.888889v-113.777778z m0-227.555556h-56.888889v113.777778h56.888889v-113.777778z m-15.644444-239.047111l-50.631112 25.998222c6.144 11.946667 9.386667 25.144889 9.386667 38.912v60.359111h56.888889V14.222222c0-22.869333-5.404444-44.942222-15.644444-64.853333zM774.997333-128v56.888889h107.178667l5.290667 0.170667 3.697777-56.775112-4.380444-0.170666-111.786667-0.113778z m-227.555555 0v56.888889h113.777778v-56.888889h-113.777778z m-227.555556 0v56.888889h113.777778v-56.888889h-113.777778z m-238.535111 13.653333l24.348445 51.427556c11.320889-5.404444 23.665778-8.192 36.522666-8.192h63.886222v-56.888889H142.222222c-21.333333 0-41.984 4.721778-60.871111 13.653333zM0 117.532444h56.888889v-103.936c0-2.616889 0.170667-5.233778 0.398222-7.850666l-56.604444-5.575111A144.384 144.384 0 0 0 0 13.425778v104.106666z m0 227.555556h56.888889v-113.777778H0v113.777778z m0 227.555556h56.888889v-113.777778H0v113.777778z m11.776 237.909333l52.167111-22.755556C59.335111 777.272889 56.888889 765.724444 56.888889 753.777778v-67.356445H0V753.777778c0 19.740444 4.039111 39.025778 11.776 56.775111zM140.913778 896l0.512-56.888889c-3.527111 0-7.054222-0.284444-10.467556-0.739555L123.448889 894.748444C129.137778 895.544889 135.054222 896 140.913778 896zM724.593778 466.602667H615.537778c-35.953778 0-65.365333 30.264889-65.365334 67.242666V646.030222A22.186667 22.186667 0 0 1 528.497778 668.444444H354.133333c-35.953778 0-65.365333-30.264889-65.365333-67.299555v-426.097778c0-37.034667 29.411556-67.356444 65.422222-67.356444h326.826667c35.953778 0 65.365333 30.321778 65.365333 67.299555V444.131556a22.186667 22.186667 0 0 1-21.788444 22.471111z m17.408 94.208L641.763556 663.893333A13.767111 13.767111 0 0 1 630.897778 668.444444a15.132444 15.132444 0 0 1-15.303111-15.701333v-74.012444a44.373333 44.373333 0 0 1 43.633777-44.885334h71.907556a15.132444 15.132444 0 0 1 15.246222 15.701334 14.620444 14.620444 0 0 1-4.380444 11.264z"  horiz-adv-x="1024" />

    
    <glyph glyph-name="project" unicode="&#59042;" d="M273.014154 79.793231h92.002461a9.216 9.216 0 0 1 9.216 9.216v534.055384a9.216 9.216 0 0 1-9.216 9.137231H273.014154a9.216 9.216 0 0 1-9.216-9.216v-533.976615c0-5.041231 4.096-9.216 9.216-9.216zM493.883077 402.116923H586.043077a9.216 9.216 0 0 1 9.137231 9.216V622.985846a9.216 9.216 0 0 1-9.137231 9.216H493.883077a9.216 9.216 0 0 1-9.137231-9.216v-211.731692c0-5.041231 4.096-9.216 9.216-9.216z m220.947692-82.865231h92.081231a9.216 9.216 0 0 1 9.216 9.216v294.596923a9.216 9.216 0 0 1-9.216 9.216h-92.16a9.216 9.216 0 0 1-9.137231-9.216v-294.596923c0-5.041231 4.174769-9.216 9.216-9.216z m248.595693 497.191385H116.420923a36.785231 36.785231 0 0 1-36.785231-36.785231v-847.084308c0-20.322462 16.462769-36.785231 36.785231-36.78523h847.084308a36.785231 36.785231 0 0 1 36.785231 36.78523V779.579077a36.785231 36.785231 0 0 1-36.785231 36.785231z m-46.08-837.789539H162.500923V733.499077h754.924308v-754.924308z"  horiz-adv-x="1102" />

    
    <glyph glyph-name="project_list" unicode="&#59040;" d="M170.861714 675.693714h744.740572a35.766857 35.766857 0 0 1 34.889143 36.571429c0 20.187429-15.652571 36.571429-34.889143 36.571428H170.861714a35.766857 35.766857 0 0 1-34.889143-36.571428c0-20.260571 15.579429-36.571429 34.889143-36.571429z m0-651.702857h744.740572a35.766857 35.766857 0 0 1 34.889143 36.571429c0 20.260571-15.652571 36.571429-34.889143 36.571428H170.861714a35.766857 35.766857 0 0 1-34.889143-36.571428c0-20.187429 15.579429-36.571429 34.889143-36.571429zM356.937143 349.842286h558.592a35.766857 35.766857 0 0 1 34.889143 36.571428c0 20.187429-15.652571 36.571429-34.889143 36.571429H356.937143a35.766857 35.766857 0 0 1-34.889143-36.571429c0-20.187429 15.652571-36.571429 34.889143-36.571428z"  horiz-adv-x="1024" />

    
    <glyph glyph-name="system" unicode="&#59039;" d="M922.048 767.424H138.88c-40.704 0-73.856-33.088-73.856-73.792v-498.688c0-40.704 33.152-73.856 73.856-73.856h93.248a34.24 34.24 0 0 1 14.144 3.136c1.024 0.448 1.856 1.28 2.816 1.92a36.032 36.032 0 0 1 8.896 6.848c0.32 0.448 0.832 0.512 1.088 0.96l170.88 209.344 78.592-67.776a34.88 34.88 0 0 1 48.32 2.688l150.656 161.472c17.6-10.496 37.824-16.896 59.712-16.896a117.76 117.76 0 0 1 117.632 117.632 117.76 117.76 0 0 1-117.632 117.568 117.76 117.76 0 0 1-117.568-117.568c0-17.472 4.032-33.92 10.88-48.768L528.64 350.4 448.256 419.648a34.88 34.88 0 0 1-49.92-4.352l-182.848-224.32H138.816a4.032 4.032 0 0 0-4.032 4.032v498.56c0 2.24 1.856 4.032 4.032 4.032h783.232c2.24 0 4.032-1.856 4.032-3.968v-498.688a4.032 4.032 0 0 0-4.032-4.032H516.672a34.88 34.88 0 0 1-34.944-34.88c0-0.768 0.384-1.344 0.448-2.112v-147.904H308.992a34.88 34.88 0 1 1 0-69.76h442.752a34.88 34.88 0 1 1 0 69.76H551.936v115.072h370.112c40.704 0 73.856 33.152 73.856 73.856V693.632c0 40.704-33.152 73.792-73.856 73.792z m-154.88-179.2a47.872 47.872 0 1 0 0.192-95.744 47.872 47.872 0 0 0-0.192 95.68z"  horiz-adv-x="1024" />

    
    <glyph glyph-name="authorize_project" unicode="&#59038;" d="M531.498667-108.288C256.128-108.288 19.712 115.370667 19.712 384 19.712 655.914667 240.085333 876.288 512 876.288S1004.288 655.914667 1004.288 384c0-275.626667-204.373333-492.288-472.789333-492.288z m0 39.381333c246.186667 0 433.408 198.570667 433.408 452.906667 0 250.154667-202.752 452.906667-452.906667 452.906667S59.093333 634.154667 59.093333 384c0-246.357333 218.282667-452.906667 472.405334-452.906667zM733.397333 245.248l-31.317333-31.36c8.106667-15.872 10.24-31.829333 6.4-47.872-3.882667-16.085333-12.970667-29.141333-27.306667-39.210667a65.962667 65.962667 0 0 0-46.122666-12.458666 65.109333 65.109333 0 0 0-42.368 22.058666A66.176 66.176 0 0 0 574.378667 180.522667c-0.384 16.426667 5.12 31.317333 16.554666 44.672 11.434667 13.354667 25.258667 21.290667 41.514667 23.808 16.213333 2.517333 31.914667-0.853333 46.976-10.154667l74.88 74.837333a17.408 17.408 0 0 0 11.904 4.693334c4.437333 0 8.405333-1.706667 11.904-4.992a15.786667 15.786667 0 0 0 5.205333-11.861334c0-4.693333-1.706667-8.704-5.205333-12.202666l-20.309333-20.309334 23.765333-24.362666a16.384 16.384 0 0 0 5.248-11.946667c0-4.437333-1.749333-8.362667-5.248-11.861333a16.682667 16.682667 0 0 0-24.32 0l-23.253333 24.362666h-0.597334z m-91.093333-97.536a32.981333 32.981333 0 0 1 17.109333 4.650667 34.133333 34.133333 0 0 1 16.554667 29.312 35.754667 35.754667 0 0 1-4.352 17.109333 30.293333 30.293333 0 0 1-12.202667 12.458667 34.645333 34.645333 0 0 1-17.109333 4.394666 32.64 32.64 0 0 1-33.664-33.706666c0-9.642667 3.2-17.664 9.557333-24.064 6.4-6.4 14.421333-9.770667 24.106667-10.154667zM311.552 190.421333V580.821333h397.653333V385.621333c0-10.88 8.021333-19.712 17.92-19.712 9.898667 0 17.92 8.832 17.92 19.712V600.576C745.045333 611.456 737.024 620.288 727.125333 620.288H293.632C283.733333 620.288 275.712 611.456 275.712 600.576v-429.909333c0-10.88 8.021333-19.712 17.92-19.712h208.768c9.898667 0 17.92 8.832 17.92 19.712 0 10.922667-8.021333 19.754667-17.92 19.754666H311.552zM393.856 541.525333m15.744 0l15.786667 0q15.744 0 15.744-15.744l0-244.224q0-15.744-15.744-15.744l-15.786667 0q-15.744 0-15.744 15.744l0 244.224q0 15.744 15.744 15.744ZM582.912 541.525333m15.744 0l15.786667 0q15.744 0 15.744-15.744l0-165.418666q0-15.744-15.744-15.744l-15.786667 0q-15.744 0-15.744 15.744l0 165.418666q0 15.744 15.744 15.744ZM488.405333 541.525333m15.744 0l15.786667 0q15.744 0 15.744-15.744l0-86.656q0-15.744-15.744-15.744l-15.786667 0q-15.744 0-15.744 15.744l0 86.656q0 15.744 15.744 15.744Z"  horiz-adv-x="1024" />

    
    <glyph glyph-name="proplist" unicode="&#59036;" d="M369.152 587.264L306.346667 639.146667l-220.16-265.216 220.16-265.386667 62.72 51.882667L192 373.930667l177.152 213.333333z m-31.402667-253.952h81.493334v81.322667h-81.493334v-81.322667zM744.96 414.72h-81.408v-81.408h81.408V414.72z m-244.309333-81.408h81.493333v81.322667h-81.493333v-81.322667z m275.626666 306.090667l-62.634666-51.882667 177.066666-213.589333-177.066666-213.248 62.634666-51.882667 220.245334 265.130667-220.16 265.472z"  horiz-adv-x="1024" />

    
    <glyph glyph-name="prop_global" unicode="&#59037;" d="M503.296 749.738667a357.376 357.376 0 0 0 356.949333-357.034667 357.290667 357.290667 0 0 0-356.949333-356.949333 357.376 357.376 0 0 0-356.949333 356.949333 357.376 357.376 0 0 0 356.949333 357.034667m0 60.928a417.962667 417.962667 0 1 1 0.085333-835.925334A417.962667 417.962667 0 0 1 503.296 810.666667zM503.296 749.568c26.026667-7.68 92.501333-126.805333 92.501333-356.864 0-231.68-67.413333-350.805333-91.904-356.949333-25.6 6.144-93.098667 125.269333-93.098666 356.949333 0 230.058667 66.474667 349.184 92.501333 356.864m0 61.098667c-84.821333 0-153.514667-187.136-153.514667-417.962667 0-230.741333 68.693333-417.877333 153.514667-417.877333 84.736 0 153.429333 187.136 153.429333 417.877333C656.725333 623.530667 588.032 810.666667 503.296 810.666667zM503.296 485.205333c231.68 0 350.805333-67.413333 356.949333-91.904-6.144-25.6-125.269333-93.098667-356.949333-93.098666-231.765333 0-350.890667 67.413333-357.034667 91.904 6.144 25.6 125.269333 93.098667 357.034667 93.098666m0 61.013334C272.469333 546.133333 85.333333 477.525333 85.333333 392.704c0-84.736 187.136-153.429333 417.962667-153.429333 230.741333 0 417.877333 68.693333 417.877333 153.429333 0 84.821333-187.136 153.514667-417.877333 153.514667z"  horiz-adv-x="1024" />

    
    <glyph glyph-name="view_workflow" unicode="&#59035;" d="M910.08 831.488h-204.672a35.008 35.008 0 0 1 0-70.016h169.792v-169.792a35.008 35.008 0 0 1 70.016 0v204.8a35.136 35.136 0 0 1-35.136 35.008zM99.84 556.672a35.008 35.008 0 0 1 35.072 35.008V761.472H304.64a35.008 35.008 0 0 1 0 70.016h-204.8a35.008 35.008 0 0 1-35.008-35.008v-204.8c0-19.264 15.616-35.008 35.008-35.008z m204.8-560.192H134.848v169.792a35.008 35.008 0 0 1-70.016 0v-204.8c0-19.264 15.68-34.944 35.008-34.944h204.8a35.008 35.008 0 1 1-0.128 69.952z m605.44 204.8a35.008 35.008 0 0 1-35.008-35.008v-169.792h-169.664a35.008 35.008 0 0 1 0-69.952h204.8a35.008 35.008 0 0 1 35.008 34.944v204.8a35.136 35.136 0 0 1-35.136 35.008z m-147.968-104.96a34.944 34.944 0 0 1 24.064 60.288l-88.192 84.224a256.96 256.96 0 1 1-466.88 163.584 257.024 257.024 0 0 1 419.264-214.912l87.552-83.52a34.88 34.88 0 0 1 24.192-9.664z m-87.936 280.32a186.368 186.368 0 0 0-58.752-124.8 185.984 185.984 0 0 0-139.648-50.112 185.728 185.728 0 0 0-128.576 62.976A186.24 186.24 0 0 0 300.8 400.128c3.008 47.744 23.872 92.096 58.816 124.8a185.984 185.984 0 0 0 139.52 50.048c49.92-3.072 95.488-25.472 128.576-62.976 33.216-37.376 49.664-85.504 46.464-135.424z"  horiz-adv-x="1024" />

    
    <glyph glyph-name="table_collapse" unicode="&#59015;" d="M70.4 742.4c0 45.909333 37.290667 83.2 83.2 83.2h716.8c45.909333 0 83.2-37.290667 83.2-83.2v-716.8a83.2 83.2 0 0 0-83.2-83.2H153.6a83.2 83.2 0 0 0-83.2 83.2V742.4z m64 0v-716.8c0-10.581333 8.533333-19.2 19.2-19.2h716.8c10.581333 0 19.2 8.533333 19.2 19.2V742.4c0 10.581333-8.533333 19.2-19.2 19.2H153.6c-10.581333 0-19.2-8.533333-19.2-19.2zM307.2 352a32 32 0 0 0 0 64h409.6a32 32 0 0 0 0-64H307.2z"  horiz-adv-x="1024" />

    
    <glyph glyph-name="table_expand" unicode="&#59019;" d="M70.4 742.4c0 45.909333 37.290667 83.2 83.2 83.2h716.8c45.909333 0 83.2-37.290667 83.2-83.2v-716.8a83.2 83.2 0 0 0-83.2-83.2H153.6a83.2 83.2 0 0 0-83.2 83.2V742.4z m64 0v-716.8c0-10.581333 8.533333-19.2 19.2-19.2h716.8c10.581333 0 19.2 8.533333 19.2 19.2V742.4c0 10.581333-8.533333 19.2-19.2 19.2H153.6c-10.581333 0-19.2-8.533333-19.2-19.2zM307.2 352a32 32 0 0 0 0 64h409.6a32 32 0 0 0 0-64H307.2zM480 588.8a32 32 0 0 0 64 0v-409.6a32 32 0 0 0-64 0V588.8z"  horiz-adv-x="1024" />

    
    <glyph glyph-name="download2" unicode="&#58985;" d="M914.285714 283.940571v-254.025142a46.665143 46.665143 0 0 0-46.811428-46.592H156.525714a46.738286 46.738286 0 0 0-46.811428 46.592V283.940571a46.738286 46.738286 0 0 0 93.622857 0v-207.36h617.325714V283.940571a46.738286 46.738286 0 0 0 93.622857 0z m-555.446857 196.754286L465.188571 372.297143V776.192a46.738286 46.738286 0 0 0 93.622858 0v-403.821714l106.349714 108.251428a46.665143 46.665143 0 0 0 66.852571-65.243428l-186.514285-189.952a46.811429 46.811429 0 0 0-66.925715 0L291.986286 415.451429a46.518857 46.518857 0 0 0 0.731428 65.974857 46.811429 46.811429 0 0 0 66.121143-0.731429z"  horiz-adv-x="1024" />

    
    <glyph glyph-name="upload" unicode="&#58997;" d="M914.285714 283.940571v-254.025142a46.665143 46.665143 0 0 0-46.811428-46.592H156.525714a46.738286 46.738286 0 0 0-46.811428 46.592V283.940571a46.738286 46.738286 0 0 0 93.622857 0v-207.36h617.325714V283.940571a46.738286 46.738286 0 0 0 93.622857 0zM358.838857 553.618286L465.188571 661.942857v-403.894857a46.738286 46.738286 0 0 1 93.622858 0V661.942857l106.349714-108.324571a46.665143 46.665143 0 0 1 66.852571 65.243428l-186.514285 189.952a46.811429 46.811429 0 0 1-66.925715 0L291.986286 618.934857a46.518857 46.518857 0 0 1 0.731428-65.901714 46.811429 46.811429 0 0 1 66.121143 0.658286z"  horiz-adv-x="1024" />

    
    <glyph glyph-name="placeholder_folder" unicode="&#59239;" d="M910.222222 896a113.777778 113.777778 0 0 0 113.777778-113.777778v-796.444444a113.777778 113.777778 0 0 0-113.777778-113.777778H113.777778a113.777778 113.777778 0 0 0-113.777778 113.777778V782.222222a113.777778 113.777778 0 0 0 113.777778 113.777778h796.444444z m-89.998222-474.112H199.111111v-281.031111c0-6.314667 2.616889-12.344889 7.224889-16.782222a25.429333 25.429333 0 0 1 17.635556-6.997334h576.853333c11.320889 0 21.219556 7.338667 24.064 17.806223l-4.664889 287.004444zM387.527111 622.933333H223.914667c-13.653333 0-24.803556-10.24-24.803556-22.869333V466.488889h620.885333l0.056889 42.325333c0 12.629333-11.150222 22.869333-24.860444 22.869334H507.448889a25.998222 25.998222 0 0 0-17.635556 6.656l-84.764444 77.937777a26.112 26.112 0 0 1-17.578667 6.656z"  horiz-adv-x="1024" />

    
    <glyph glyph-name="placeholder_file" unicode="&#59240;" d="M910.222222 896a113.777778 113.777778 0 0 0 113.777778-113.777778v-796.444444a113.777778 113.777778 0 0 0-113.777778-113.777778H113.777778a113.777778 113.777778 0 0 0-113.777778 113.777778V782.222222a113.777778 113.777778 0 0 0 113.777778 113.777778h796.444444zM528.497778 668.444444H354.076444c-35.953778 0-65.365333-30.264889-65.365333-67.299555v-426.097778c0-37.034667 29.411556-67.356444 65.422222-67.356444h326.826667c35.953778 0 65.365333 30.321778 65.365333 67.299555V444.131556a22.186667 22.186667 0 0 1-21.788444 22.471111H615.537778c-35.953778 0-65.365333 30.264889-65.365334 67.242666V646.030222A22.186667 22.186667 0 0 1 528.497778 668.444444z m102.4 0a15.132444 15.132444 0 0 1-15.303111-15.701333v-74.012444a44.373333 44.373333 0 0 1 43.633777-44.885334h71.907556a15.132444 15.132444 0 0 1 15.246222 15.701334 14.620444 14.620444 0 0 1-4.380444 11.264L641.763556 663.893333A13.767111 13.767111 0 0 1 630.897778 668.444444z"  horiz-adv-x="1024" />

    
    <glyph glyph-name="folder_closed" unicode="&#59033;" d="M872.813714 457.216l5.997715-387.510857a31.963429 31.963429 0 0 0-31.012572-23.990857H105.106286A31.963429 31.963429 0 0 0 73.142857 77.750857V457.142857l799.670857 0.073143zM73.142857 717.677714C73.142857 735.378286 87.478857 749.714286 105.106286 749.714286h210.651428c8.411429 0 16.603429-3.364571 22.601143-9.362286l109.129143-109.275429a31.963429 31.963429 0 0 1 22.674286-9.362285h370.395428c17.700571 0 32.036571-14.336 32.036572-32.036572l-0.073143-59.318857L73.142857 530.285714V717.750857z"  horiz-adv-x="1024" />

    
    <glyph glyph-name="folder" unicode="&#59031;" d="M146.578286 420.571429v-341.284572h694.857143V420.571429h-694.857143z m0 73.142857h694.857143V585.142857H460.580571L369.152 676.571429H146.578286v-182.857143zM490.788571 658.285714h379.830858a43.885714 43.885714 0 0 0 43.885714-43.885714v-552.228571a43.885714 43.885714 0 0 0-43.885714-43.885715h-753.371429a43.885714 43.885714 0 0 0-43.885714 43.885715V705.828571a43.885714 43.885714 0 0 0 43.885714 43.885715H399.36l91.428571-91.428572z"  horiz-adv-x="1024" />

    
    <glyph glyph-name="folder_open" unicode="&#59030;" d="M105.106286 45.714286A31.963429 31.963429 0 0 0 73.142857 77.750857v640C73.142857 735.378286 87.478857 749.714286 105.106286 749.714286h210.651428c8.411429 0 16.603429-3.364571 22.601143-9.362286l109.129143-109.275429a31.963429 31.963429 0 0 1 22.674286-9.362285h370.395428c17.700571 0 32.036571-14.336 32.036572-32.036572v-111.908571h70.582857a31.963429 31.963429 0 0 0 30.939428-40.082286l-95.305142-367.981714a31.963429 31.963429 0 0 0-31.012572-23.990857H105.106286z m194.048 631.954285H145.115429v-415.963428l64.658285 194.121143c4.388571 13.092571 16.530286 21.942857 30.281143 21.942857h560.566857v71.972571H470.089143a103.862857 103.862857 0 0 0-73.435429 30.427429L299.154286 677.741714z"  horiz-adv-x="1024" />

    
    <glyph glyph-name="more-ver" unicode="&#59027;" d="M409.152 657.472c0-39.872 33.088-72.128 73.984-72.128 40.832 0 73.92 32.256 73.92 72.128S523.968 729.6 483.2 729.6c-40.96 0-73.984-32.256-73.984-72.128z m0-279.872c0-39.808 33.088-72.128 73.984-72.128 40.832 0 73.92 32.32 73.92 72.128S523.968 449.728 483.2 449.728c-40.96 0-73.984-32.32-73.984-72.128z m0-279.872c0-39.872 33.088-72.128 73.984-72.128 40.832 0 73.92 32.256 73.92 72.128s-33.088 72.128-73.92 72.128a72.96 72.96 0 0 1-73.984-72.128z"  horiz-adv-x="1024" />

    
    <glyph glyph-name="collapse" unicode="&#59026;" d="M736 179.2H160V755.2h576V179.2z m-512 57.6h448v460.8h-448v-460.8zM864 51.2H335.9744v144.0256h64v-86.4256h400.0256v460.8h-112.0256V627.2h176.0256zM320 435.2h256V499.2h-256z"  horiz-adv-x="1024" />

    
    <glyph glyph-name="tabclose" unicode="&#59024;" d="M884.053333 99.498667c12.202667-12.8 18.261333-27.306667 18.261334-43.776a59.477333 59.477333 0 0 0-18.773334-43.264 59.477333 59.477333 0 0 0-43.264-18.773334 61.525333 61.525333 0 0 0-43.776 18.346667L536.490667 271.957333 276.48 12.117333a61.525333 61.525333 0 0 0-43.690667-18.346666 59.477333 59.477333 0 0 0-43.349333 18.773333 59.477333 59.477333 0 0 0-18.773333 43.264c0 16.384 6.144 30.976 18.346666 43.776l260.010667 260.010667L189.013333 619.52a60.928 60.928 0 0 0-17.066666 43.349333 59.904 59.904 0 0 0 18.773333 42.496 59.904 59.904 0 0 0 42.410667 18.773334 60.928 60.928 0 0 0 43.349333-17.066667l260.010667-260.096 260.010666 260.010667A61.525333 61.525333 0 0 0 840.277333 725.333333c16.384 0 30.805333-6.229333 43.264-18.773333 12.544-12.458667 18.773333-26.88 18.773334-43.349333a61.525333 61.525333 0 0 0-18.346667-43.690667L624.042667 359.509333l259.925333-260.010666z"  horiz-adv-x="1024" />

    
    <glyph glyph-name="workflowmini" unicode="&#59023;" d="M644.551111 793.6a51.2 51.2 0 0 0 51.2-51.2v-204.8a51.2 51.2 0 0 0-51.2-51.2L563.2 486.456889v-115.256889h275.740444V281.6H921.6a51.2 51.2 0 0 0 51.2-51.2v-204.8a51.2 51.2 0 0 0-51.2-51.2h-204.8a51.2 51.2 0 0 0-51.2 51.2v204.8a51.2 51.2 0 0 0 51.2 51.2h70.940444v38.4H512.056889V386.901333H280.689778V281.6H358.4a51.2 51.2 0 0 0 51.2-51.2v-204.8a51.2 51.2 0 0 0-51.2-51.2H153.6a51.2 51.2 0 0 0-51.2 51.2v204.8a51.2 51.2 0 0 0 51.2 51.2h75.946667V438.044444L512 438.158222v48.355556L439.751111 486.4a51.2 51.2 0 0 0-51.2 51.2V742.4a51.2 51.2 0 0 0 51.2 51.2h204.8zM337.92 209.92H174.08v-163.84h163.84v163.84z m563.2 0h-163.84v-163.84h163.84v163.84z m-277.048889 512H460.231111v-163.84h163.84V721.92z"  horiz-adv-x="1024" />

    
    <glyph glyph-name="off_line" unicode="&#59022;" d="M543.378286-35.181714l196.534857 226.962285a37.522286 37.522286 0 0 1-5.339429 53.540572 40.082286 40.082286 0 0 1-55.149714-4.681143l-131.072-151.405714V574.317714a38.765714 38.765714 0 0 1-39.277714 38.253715 38.765714 38.765714 0 0 1-39.277715-38.253715v-481.28l-119.954285 147.748572a39.862857 39.862857 0 0 1-67.291429-11.044572 37.449143 37.449143 0 0 1 6.875429-37.888l188.635428-232.301714a40.082286 40.082286 0 0 1 10.386286-8.557714 40.009143 40.009143 0 0 1 30.573714-4.534857 38.912 38.912 0 0 1 24.429715 18.505142l-0.073143-0.073142zM73.142857 332.946286a38.034286 38.034286 0 0 1 19.236572-33.353143 40.228571 40.228571 0 0 1 39.277714-0.512 38.034286 38.034286 0 0 1 20.114286 32.914286c3.657143 281.746286 166.034286 414.427429 357.888 414.427428 191.853714 0 353.572571-133.12 362.569142-415.158857a38.180571 38.180571 0 0 1 20.699429-32.548571 40.228571 40.228571 0 0 1 39.277714 1.170285 38.034286 38.034286 0 0 1 18.651429 33.718857C940.617143 654.482286 739.035429 822.857143 509.659429 822.857143 280.137143 822.857143 77.385143 654.043429 73.142857 332.946286z"  horiz-adv-x="1024" />

    
    <glyph glyph-name="combine" unicode="&#59020;" d="M1021.013333 318.976L827.221333 446.464c-0.256 0.256-0.768 0.512-1.024 0.853333a33.706667 33.706667 0 0 1-47.872 1.962667 7.68 7.68 0 0 1-2.816-5.888v-91.136a7.68 7.68 0 0 0-7.68-7.68H575.573333a7.68 7.68 0 0 0-6.656 3.84L368.981333 698.624a7.68 7.68 0 0 1-6.656 3.84H59.733333c-25.6 0-51.2-25.6-51.2-51.2s25.6-51.2 51.2-51.2h251.136a7.68 7.68 0 0 0 6.656-3.84l199.936-350.208a7.68 7.68 0 0 1 6.656-3.84h243.456a7.68 7.68 0 0 0 7.68-7.68V143.36a7.68 7.68 0 0 1 2.816-5.888 33.706667 33.706667 0 0 1 47.872 2.048l1.024 0.853333 193.28 132.010667c0.512 0.256 0.768 0.853333 1.28 1.024 14.848 15.616 14.592 35.328-0.512 45.568zM51.2 204.8h341.333333a51.2 51.2 0 1 1 0 102.4h-341.333333a51.2 51.2 0 1 1 0-102.4z"  horiz-adv-x="1033" />

    
    <glyph glyph-name="split" unicode="&#59021;" d="M39.253333 358.741333C34.56 361.984 7.68 384 7.68 404.224c0 20.224 25.173333 32.768 30.976 36.693333h441.685333a6.4 6.4 0 0 1 5.546667 3.157334l166.656 291.84a6.4 6.4 0 0 0 5.546667 3.242666L810.666667 738.986667V810.666667l109.994666-73.216c8.192-2.56 15.786667-7.850667 21.589334-14.506667l81.749333-54.528-213.333333-142.165333V653.653333H700.928a6.4 6.4 0 0 1-5.546667-3.157333l-166.570666-291.84a6.4 6.4 0 0 0-5.546667-3.157333H296.874667c-66.901333 0-253.696 0.512-257.621334 3.157333zM810.666667-42.666667V99.925333h-67.242667a6.741333 6.741333 0 0 0-5.546667 3.072c-16.213333 26.026667-109.909333 183.210667-124.16 206.933334a6.4 6.4 0 0 0-0.256 6.144l35.84 71.509333c2.389333 4.437333 8.789333 4.864 11.349334 0.426667l119.893333-199.68a6.4 6.4 0 0 1 5.546667-3.242667H810.666667V277.333333L1024 117.333333 810.666667-42.666667z"  horiz-adv-x="1024" />

    
    <glyph glyph-name="zhuanhuan" unicode="&#59018;" d="M99.12 467.998h828.014a43.35 43.35 0 0 1 43.35 43.35 43.249 43.249 0 0 1-16.451 33.957 43.466 43.466 0 0 1-9.22 8.757L635.505 771.13a43.35 43.35 0 1 1-49.809-70.964l207.271-145.46H99.12a43.35 43.35 0 0 1 0-86.708z m828.014-173.075H99.12a43.35 43.35 0 0 1-43.35-43.35 43.206 43.206 0 0 1 16.451-33.95 43.284 43.284 0 0 1 9.22-8.757L390.75-8.21a43.314 43.314 0 0 1 60.387 10.584 43.35 43.35 0 0 1-10.578 60.387l-207.27 145.46h693.845a43.35 43.35 0 0 1 0 86.7z"  horiz-adv-x="1024" />

    
    <glyph glyph-name="rely" unicode="&#59017;" d="M512-128C229.21216-128 0 101.21216 0 384S229.21216 896 512 896 1024 666.78784 1024 384 794.78784-128 512-128z m0 40.96C772.13696-87.04 983.04 123.86304 983.04 384S772.13696 855.04 512 855.04 40.96 644.13696 40.96 384 251.86304-87.04 512-87.04zM376.25856 110.592a129.10592 129.10592 0 0 0-130.00704 131.072c0.4096 35.10272 14.5408 68.64896 39.3216 93.51168l67.29728 66.84672a22.03648 22.03648 0 1 0 31.90784-30.39232L316.6208 304.57856c-16.7936-16.75264-26.37824-39.40352-26.624-63.11936a85.6064 85.6064 0 0 1 25.06752-62.0544 88.6784 88.6784 0 0 1 125.17376 1.51552l104.8576 105.10336c16.95744 16.62976 26.54208 39.36256 26.66496 63.0784a84.992 84.992 0 0 1-25.10848 61.8496 21.95456 21.95456 0 1 0 31.00672 31.04768c24.7808-24.73984 38.42048-58.49088 37.80608-93.51168a134.5536 134.5536 0 0 0-39.3216-93.51168l-103.99744-105.0624c-25.3952-25.3952-59.96544-39.60832-95.88736-39.3216zM469.52448 311.99232a21.83168 21.83168 0 0 0-15.52384 6.3488 128.90112 128.90112 0 0 0-37.76512 93.51168c0.4096 35.10272 14.49984 68.64896 39.3216 93.47072l105.0624 105.10336a132.38272 132.38272 0 0 0 186.9824 1.51552 131.072 131.072 0 0 0 37.80608-93.51168 134.5536 134.5536 0 0 0-39.3216-94.6176l-67.29728-65.536a21.83168 21.83168 0 0 0-30.80192 30.84288l67.09248 67.05152c16.7936 16.7936 26.37824 39.40352 26.624 63.16032a85.6064 85.6064 0 0 1-25.10848 62.01344 88.6784 88.6784 0 0 1-125.17376-1.51552l-104.8576-105.0624a89.33376 89.33376 0 0 1-26.624-63.16032c-0.4096-23.1424 8.64256-45.4656 25.10848-61.8496a21.83168 21.83168 0 0 0 0-30.96576 21.83168 21.83168 0 0 0-15.52384-6.79936z"  horiz-adv-x="1024" />

    
    <glyph glyph-name="dataflowmini" unicode="&#59016;" d="M704.625778 527.018667h45.226666c0 83.626667-65.820444 153.998222-143.928888 153.998222h-16.497778c-12.288 0-20.536889 8.817778-20.536889 22.016V760.206222c0 13.198222 8.248889 22.016 20.536889 22.016h16.497778c131.584 0 238.478222-114.403556 238.478222-255.203555h53.475555c8.248889 0 12.344889-8.817778 12.344889-17.635556 0-4.380444 0-4.380444-4.096-8.760889l-90.453333-110.023111a19.000889 19.000889 0 0 0-28.842667 0l-90.453333 110.023111c-4.096 4.380444-4.096 13.198222 0 17.635556 4.096 4.323556 4.096 8.760889 8.248889 8.760889zM319.374222 248.32H274.204444c0-84.593778 65.820444-155.761778 143.928889-155.761778h16.497778c12.288 0 20.536889-8.874667 20.536889-22.243555v-62.293334c0-13.368889-8.248889-22.243556-20.536889-22.243555h-16.497778c-131.584 0-238.478222 115.712-238.478222 258.048h-53.475555c-8.248889 0-12.344889 4.494222-12.344889 13.368889 0 4.437333 0 4.437333 4.096 8.874666l90.453333 111.274667a18.830222 18.830222 0 0 0 28.842667 0l90.453333-111.274667c4.096-4.437333 4.096-13.312 0-17.749333 0 4.437333-4.096 0-8.248889 0zM341.333333 839.111111a113.777778 113.777778 0 0 0 113.777778-113.777778v-170.666666a113.777778 113.777778 0 0 0-113.777778-113.777778H170.666667a113.777778 113.777778 0 0 0-113.777778 113.777778V725.333333a113.777778 113.777778 0 0 0 113.777778 113.777778h170.666666zM170.666667 725.333333v-170.666666h170.666666V725.333333H170.666667zM853.333333 327.111111a113.777778 113.777778 0 0 0 113.777778-113.777778v-170.666666a113.777778 113.777778 0 0 0-113.777778-113.777778h-170.666666a113.777778 113.777778 0 0 0-113.777778 113.777778v170.666666a113.777778 113.777778 0 0 0 113.777778 113.777778h170.666666z m-170.666666-113.777778v-170.666666h170.666666v170.666666h-170.666666z"  horiz-adv-x="1024" />

    
    <glyph glyph-name="instance" unicode="&#59012;" d="M890.709333-53.333333h-576a48.042667 48.042667 0 0 0 0 96h527.957334V666.709333a48.042667 48.042667 0 0 0 96 0v-672.085333c0-26.453333-21.504-47.957333-48.042667-47.957333z m-192 192H218.538667A48.042667 48.042667 0 0 0 170.666667 186.709333v576c0 26.453333 21.504 47.957333 48.042666 47.957334h479.914667c26.538667 0 48.042667-21.504 48.042667-48.042667v-576c0-26.453333-21.504-47.957333-48.042667-47.957333zM266.666667 234.666667h384V714.666667h-384V234.666667z"  horiz-adv-x="1024" />

    
    <glyph glyph-name="view_column" unicode="&#59011;" d="M816.128 768c21.952 0 40.768-7.904 56.48-23.488 15.488-15.616 23.392-34.432 23.392-56.48l0.032-348.896a240.896 240.896 0 0 1-64.096 49.216V640.096H511.808v-344.64A238.912 238.912 0 0 1 480 176a239.36 239.36 0 0 1 76.864-176.032L143.968 0a77.408 77.408 0 0 0-56.448 23.488A76.96 76.96 0 0 0 64 80V688C64 709.984 71.808 728.8 87.52 744.512A76.992 76.992 0 0 0 143.936 768h672.16zM447.968 640.096H127.84v-560.032c0-4.256 1.6-8.096 4.8-11.2 3.2-3.136 6.88-4.8 11.232-4.8h304.096V640.096zM720 384a208 208 0 1 0 0-416 208 208 0 0 0 0 416z m0-64a144 144 0 1 1 0-288 144 144 0 0 1 0 288zM837.490332 45.254834m11.313709 11.313708l22.627417 22.627417q11.313708 11.313708 22.627417 0l113.137084-113.137084q11.313708-11.313708 0-22.627417l-22.627417-22.627417q-11.313708-11.313708-22.627417 0l-113.137084 113.137084q-11.313708 11.313708 0 22.627417Z"  horiz-adv-x="1024" />

    
    <glyph glyph-name="dataflow_project" unicode="&#59010;" d="M475.428571 757.540571l339.602286-203.739428v-174.848a219.428571 219.428571 0 0 1-229.449143-336.384L475.428571-23.515429 135.826286 180.297143V553.801143L475.428571 757.540571zM135.826286 553.801143L475.428571 369.078857l339.602286 184.685714L475.428571 757.577143zM815.030857 553.801143v-174.848a219.428571 219.428571 0 0 1-229.412571-336.384L475.428571-23.515429V369.078857l339.602286 184.685714zM475.428571 777.362286l356.571429-213.942857v-188.928c-10.971429 3.364571-22.308571 5.851429-33.938286 7.460571V544.182857L475.428571 737.755429 152.832 544.182857v-354.340571L475.428571-3.657143l101.266286 60.708572c5.595429-9.874286 11.922286-19.382857 18.944-28.233143L475.428571-43.300571l-356.571428 213.942857V563.419429L475.428571 777.362286zM817.846857 161.974857h27.355429c0 48.749714-39.789714 89.819429-87.076572 89.819429h-9.947428c-7.460571 0-12.434286 5.12-12.434286 12.836571v33.389714c0 7.68 4.973714 12.836571 12.434286 12.836572h9.947428c79.616 0 144.310857-66.742857 144.310857-148.882286h32.365715c4.973714 0 7.460571-5.12 7.460571-10.276571 0-2.56 0-2.56-2.486857-5.12L885.028571 82.322286a11.776 11.776 0 0 0-17.408 0l-54.747428 64.182857a8.009143 8.009143 0 0 0 0 10.276571c2.486857 2.56 2.486857 5.12 4.973714 5.12zM709.558857 154.221714h-27.392c0-49.298286 39.826286-90.843429 87.113143-90.843428h9.947429c7.460571 0 12.434286-5.193143 12.434285-12.982857v-36.352c0-7.789714-4.973714-12.982857-12.434285-12.982858h-9.947429c-79.616 0-144.310857 67.510857-144.310857 150.564572h-32.365714c-4.973714 0-7.460571 2.596571-7.460572 7.789714 0 2.596571 0 2.596571 2.486857 5.193143l54.747429 64.914286a11.702857 11.702857 0 0 0 17.408 0L714.532571 164.571429c2.486857-2.56 2.486857-7.789714 0-10.386286 0 2.596571-2.486857 0-4.973714 0z"  horiz-adv-x="1024" />

    
    <glyph glyph-name="pannelRename" unicode="&#59009;" d="M114.261333 42.752h795.477334c8.192 0 15.018667-2.730667 20.565333-8.277333a27.904 27.904 0 0 0 8.362667-20.48v-28.928a26.624 26.624 0 0 0-8.362667-19.370667 27.989333 27.989333 0 0 0-20.48-8.362667H114.176a27.989333 27.989333 0 0 0-20.565333 8.362667 26.624 26.624 0 0 0-8.362667 19.370667v28.842666c0 8.106667 2.816 14.848 8.362667 19.968a33.706667 33.706667 0 0 0 20.48 8.874667z m629.930667 594.773333L624.213333 756.224l40.021334 39.936c9.642667 10.325333 22.954667 15.189333 40.021333 14.506667 17.066667-0.853333 36.693333-12.288 58.88-34.474667 22.186667-22.186667 33.877333-41.813333 34.986667-58.88a47.786667 47.786667 0 0 0-9.045334-33.621333l-44.885333-46.165334z m-598.869333-358.4L265.386667 160.426667 85.333333 100.437333l59.989334 178.688z m558.933333 318.464L305.322667 200.362667l-119.978667 118.613333 398.848 398.421333 120.064-119.808z"  horiz-adv-x="1024" />

    
    </font>
</defs>
</svg>
